<svg xmlns="http://www.w3.org/2000/svg" fill="none" viewBox="0 0 241 236">
  <path fill="#00B8B0" d="M135 114h-9v-10c8-21 17-28 39-31-3 25-11 33-30 41Z"/>
  <path fill="#EB565E" d="M107 114h9v-10c-8-20-17-27-39-30 3 25 11 32 30 40Z"/>
  <path fill="#056D75" d="M107 124h9v10c-8 20-17 27-39 30 3-25 11-32 30-40Zm28 0h-9v10c8 20 17 27 39 30-3-25-11-32-30-40Z"/>
  <path fill="#9F4757" d="m51 63 16-16-1 15-15 1Z"/>
  <path fill="#EC8224" d="m175 47 16 16-15-1-1-15Z"/>
  <path fill="#056D75" d="m191 174-16 17 1-16 15-1Zm-140 0 16 17-1-16-15-1Z"/>
  <path fill="#EC8224" d="M85 32c-4 5-6 11-8 31l10 1 26-26c6-3 9-3 15 0l27 26 10-1c-2-19-3-26-8-31L128 4c-5-4-8-4-15 0L85 32Z"/>
  <path fill="#056D75" d="M85 205c-5-5-6-12-8-31l10-1 27 27c6 3 9 2 15 0l26-27 10 1c-2 18-3 26-7 31l-27 26c-6 5-13 6-19 0l-27-26Z"/>
  <path fill="#9F4757" d="M33 157c6 4 12 6 33 8l1-9-29-28c-5-6-5-11 0-18l29-28-1-9c-16 1-26 3-33 8L4 112c-4 5-4 8 0 15l29 30Z"/>
  <path fill="#056D75" d="M209 157c-6 5-13 7-33 8l-1-8 29-29c5-5 4-11 0-18l-29-29 1-8c17 1 25 2 32 7l28 30c5 6 5 11 0 18l-27 29Z"/>
  <path fill="#FCB76C" d="M156 64c-20 6-27 13-34 26-9-13-15-20-35-26l27-26c6-3 9-2 14 0l28 26Z"/>
  <path fill="#00B8B0" d="M155 173c-19-6-27-12-34-25-8 13-14 19-34 25l27 27c6 3 9 2 15 0l26-27Z"/>
  <path fill="#EB565E" d="M67 82c5 19 10 28 26 37-16 9-20 17-26 36l-30-29c-3-6-3-9 0-15l30-29Z"/>
  <path fill="#00B8B0" d="M175 81c-4 18-9 28-26 38 16 9 21 18 26 37l31-30c3-6 3-9 0-14l-31-31Z"/>
  <path stroke="#00B8B0" d="M135 114h-9v-10c8-21 17-28 39-31-3 25-11 33-30 41Zm-28 0h9v-10c-8-20-17-27-39-30 3 25 11 32 30 40Zm0 10h9v10c-8 20-17 27-39 30 3-25 11-32 30-40Zm28 0h-9v10c8 20 17 27 39 30-3-25-11-32-30-40ZM51 63l16-16-1 15-15 1Zm124-16 16 16-15-1-1-15Zm16 127-16 17 1-16 15-1Zm-140 0 16 17-1-16-15-1ZM85 32c-4 5-6 11-8 31l10 1 26-26c6-3 9-3 15 0l27 26 10-1c-2-19-3-26-8-31L128 4c-5-4-8-4-15 0L85 32Zm0 173c-5-5-6-12-8-31l10-1 27 27c6 3 9 2 15 0l26-27 10 1c-2 18-3 26-7 31l-27 26c-6 5-13 6-19 0l-27-26Zm-52-48c6 4 12 6 33 8l1-9-29-28c-5-6-5-11 0-18l29-28-1-9c-16 1-26 3-33 8L4 112c-4 5-4 8 0 15l29 30Zm176 0c-6 5-13 7-33 8l-1-8 29-29c5-5 4-11 0-18l-29-29 1-8c17 1 25 2 32 7l28 30c5 6 5 11 0 18l-27 29Z"/>
  <path stroke="#00B8B0" d="M156 64c-20 6-27 13-34 26-9-13-15-20-35-26l27-26c6-3 9-2 14 0l28 26Zm-1 109c-19-6-27-12-34-25-8 13-14 19-34 25l27 27c6 3 9 2 15 0l26-27ZM67 82c5 19 10 28 26 37-16 9-20 17-26 36l-30-29c-3-6-3-9 0-15l30-29Zm108-1c-4 18-9 28-26 38 16 9 21 18 26 37l31-30c3-6 3-9 0-14l-31-31Z"/>
</svg>