<svg width="2042" height="236" viewBox="0 0 2042 236" fill="none" xmlns="http://www.w3.org/2000/svg">
<mask id="path-1-outside-1_102_5" maskUnits="userSpaceOnUse" x="0" y="0" width="2042" height="237" fill="black">
<rect fill="white" width="2042" height="237"/>
<path d="M135.176 114H126V104.04C134.201 83.4942 142.576 76.4978 165 73C161.965 98.4752 154.437 106.24 135.176 114Z"/>
<path d="M106.824 114H116V104.283C107.799 84.2382 99.4239 77.4125 77 74C80.0346 98.8538 87.5633 106.429 106.824 114Z"/>
<path d="M106.824 124H116V133.717C107.799 153.762 99.4239 160.588 77 164C80.0346 139.146 87.5633 131.571 106.824 124Z"/>
<path d="M135.176 124H126V133.717C134.201 153.762 142.576 160.588 165 164C161.965 139.146 154.437 131.571 135.176 124Z"/>
<path d="M51 63L67 47C66.1653 52.7895 65.8252 56.0403 66.0303 61.8687C61.1 61.6033 57.6744 61.9524 51 63Z"/>
<path d="M175 47L191 63C185.211 62.1653 181.96 61.8252 176.131 62.0303C176.397 57.1 176.048 53.6744 175 47Z"/>
<path d="M191 174L175 191C175.835 184.849 176.175 181.395 175.97 175.202C180.9 175.484 184.326 175.113 191 174Z"/>
<path d="M51 174L67 191C66.1653 184.849 65.8252 181.395 66.0303 175.202C61.1 175.484 57.6744 175.113 51 174Z"/>
<path d="M85.3265 31.9388C80.6503 37.1381 78.6575 43.057 77 62.6779C81.6713 62.771 83.6712 63.2235 87.2857 64L113.408 37.7231C119.317 34.8726 122.469 35.2361 127.939 37.7231L155.367 64C158.845 63.0433 160.882 62.6426 165 62.6779C163.476 44.4769 161.941 37.017 157.163 31.9388L127.939 4.33979C122.674 0.194788 119.552 -0.411026 113.408 4.33979L85.3265 31.9388Z"/>
<path d="M85.1636 205.019C80.4873 199.961 78.6575 193.413 77 174.325C81.6713 174.235 83.4892 173.755 87.1037 173L113.993 199.835C119.902 202.608 123.352 202.254 128.822 199.835L155.059 173C158.537 173.931 160.882 174.194 165 174.16C163.476 191.866 162.43 199.581 157.652 204.522C147.442 215.311 141.552 221.096 130.778 230.976C125.355 236.004 117.522 236.668 111.548 230.976C100.849 221.113 94.6462 215.451 85.1636 205.019Z"/>
<path d="M33.2405 156.592C38.7421 161.499 45.4091 163.261 66.1709 165C66.2694 160.099 66.1784 159.592 67 155.8L38.3117 127.543C33.0199 121.711 32.7096 116.596 37.8142 110.457L66.8342 81.8714C66.0466 77.6459 66.4467 76.5168 66.1709 73C49.6206 73.7815 40.3853 75.6749 33.2405 81.2222C20.8279 93.34 13.9472 100.123 4.03677 111.884C0.298273 116.984 -0.311331 120.239 4.03677 127.13C15.2501 139.225 21.598 145.819 33.2405 156.592Z"/>
<path d="M208.611 156.562C202.864 161.884 196.372 163.671 175.973 165C175.874 160.081 175.818 160.367 175 156.562L203.517 127.805C208.896 122.662 208.465 116.847 203.517 110.03L175.483 81.3786C175.973 77.4357 176.01 77.3357 175.973 73C192.75 73.9844 200.899 74.692 207.625 80.0772L236.48 110.03C240.849 115.574 241.487 121.336 236.48 127.805L208.611 156.562Z"/>
<path d="M156 64.0819C136.225 70.4233 129.403 76.5367 121.5 90C113.361 76.5012 106.908 70.3443 87 64.0819L113.538 38.1638C119.546 35.0509 122.741 35.5159 128.3 38.1638L156 64.0819Z"/>
<path d="M155 173.19C135.605 166.926 128.424 161.3 120.673 148C112.691 161.335 106.526 167.004 87 173.19L113.644 199.862C119.536 202.938 123.231 202.478 128.683 199.862L155 173.19Z"/>
<path d="M67.113 82C72.4724 100.777 77.2721 110.267 93 118.991C77.4965 127.569 73.0769 135.567 67.2768 155L37.3172 125.67C33.9836 119.684 34.4816 117.033 37.3172 111.493L67.113 82Z"/>
<path d="M175.333 81C171.077 98.7576 166.293 108.874 149 118.746C165.191 127.762 170.096 137.056 175.333 156L205.643 126.371C209.034 120.37 208.527 117.178 205.643 111.625L175.333 81Z"/>
<path d="M289.128 203.184C289.64 203.696 289.896 204.379 289.896 205.232C289.896 207.451 288.787 208.56 286.568 208.56C284.349 208.56 283.24 207.451 283.24 205.232C283.24 204.379 283.496 203.696 284.008 203.184V26.8H311.4C318.227 26.8 323.517 28.2507 327.272 31.152C331.197 33.8827 333.928 37.4667 335.464 41.904C337.171 46.3413 338.024 51.0347 338.024 55.984V126.384C338.024 131.163 337.171 135.771 335.464 140.208C333.928 144.475 331.197 147.973 327.272 150.704C323.517 153.435 318.227 154.8 311.4 154.8H289.128V203.184ZM311.4 149.68C319.592 149.68 325.224 147.291 328.296 142.512C331.368 137.733 332.904 132.357 332.904 126.384V55.984C332.904 52.0587 332.221 48.304 330.856 44.72C329.661 40.9653 327.443 37.8933 324.2 35.504C321.128 33.1147 316.861 31.92 311.4 31.92H289.128V149.68H311.4Z"/>
<path d="M407.214 202.16C407.897 202.16 408.494 202.587 409.006 203.44C410.201 205.317 409.774 206.853 407.726 208.048C407.043 208.56 406.19 208.645 405.166 208.304C404.313 208.133 403.715 207.707 403.374 207.024C403.033 206.341 402.862 205.573 402.862 204.72L373.422 154.8H360.878V203.184C361.39 203.696 361.646 204.379 361.646 205.232C361.646 207.451 360.537 208.56 358.318 208.56C356.099 208.56 354.99 207.451 354.99 205.232C354.99 204.379 355.246 203.696 355.758 203.184V26.8H383.15C389.977 26.8 395.267 28.2507 399.022 31.152C402.947 33.8827 405.678 37.4667 407.214 41.904C408.921 46.3413 409.774 51.0347 409.774 55.984V126.384C409.774 131.163 408.921 135.771 407.214 140.208C405.678 144.475 402.947 147.973 399.022 150.704C395.267 153.435 389.977 154.8 383.15 154.8H379.31L407.214 202.16ZM383.15 149.68C391.342 149.68 396.974 147.291 400.046 142.512C403.118 137.733 404.654 132.357 404.654 126.384V55.984C404.654 52.0587 403.971 48.304 402.606 44.72C401.411 40.9653 399.193 37.8933 395.95 35.504C392.878 33.1147 388.611 31.92 383.15 31.92H360.878V149.68H383.15Z"/>
<path d="M480.988 180.144C480.988 184.923 480.135 189.531 478.428 193.968C476.721 198.235 473.905 201.733 469.98 204.464C466.225 207.195 461.02 208.56 454.364 208.56C447.537 208.56 442.161 207.195 438.236 204.464C434.481 201.733 431.751 198.235 430.044 193.968C428.508 189.531 427.74 184.923 427.74 180.144V53.424C427.74 48.4747 428.508 43.7813 430.044 39.344C431.751 34.9067 434.481 31.3227 438.236 28.592C442.161 25.6907 447.537 24.24 454.364 24.24C461.02 24.24 466.225 25.6907 469.98 28.592C473.905 31.3227 476.721 34.9067 478.428 39.344C480.135 43.7813 480.988 48.4747 480.988 53.424V180.144ZM432.86 180.144C432.86 186.117 434.396 191.493 437.468 196.272C440.54 201.051 446.172 203.44 454.364 203.44C462.556 203.44 468.188 201.051 471.26 196.272C474.332 191.493 475.868 186.117 475.868 180.144V53.424C475.868 49.4987 475.185 45.744 473.82 42.16C472.625 38.4053 470.407 35.3333 467.164 32.944C464.092 30.5546 459.825 29.36 454.364 29.36C448.903 29.36 444.551 30.5546 441.308 32.944C438.236 35.3333 436.017 38.4053 434.652 42.16C433.457 45.744 432.86 49.4987 432.86 53.424V180.144Z"/>
<path d="M571.89 203.184C572.402 203.696 572.658 204.379 572.658 205.232C572.658 207.451 571.549 208.56 569.33 208.56C567.111 208.56 566.002 207.451 566.002 205.232C566.002 204.379 566.258 203.696 566.77 203.184V37.296L539.634 83.12H534.258L507.378 37.552V203.184C507.89 203.696 508.146 204.379 508.146 205.232C508.146 207.451 507.037 208.56 504.818 208.56C502.599 208.56 501.49 207.451 501.49 205.232C501.49 204.379 501.746 203.696 502.258 203.184V29.872C501.746 29.0187 501.49 28.2507 501.49 27.568C501.49 25.3493 502.599 24.24 504.818 24.24C507.037 24.24 508.146 25.3493 508.146 27.568C508.146 27.7387 508.061 27.9947 507.89 28.336C507.89 28.5067 507.89 28.592 507.89 28.592L537.074 78L566.002 28.592V27.568C566.002 25.3493 567.111 24.24 569.33 24.24C571.549 24.24 572.658 25.3493 572.658 27.568C572.658 28.2507 572.402 29.0187 571.89 29.872V203.184Z"/>
<path d="M599.128 203.184C599.64 203.696 599.896 204.379 599.896 205.232C599.896 207.451 598.787 208.56 596.568 208.56C594.349 208.56 593.24 207.451 593.24 205.232C593.24 204.379 593.496 203.696 594.008 203.184V26.8H621.4C628.227 26.8 633.517 28.2507 637.272 31.152C641.197 33.8827 643.928 37.4667 645.464 41.904C647.171 46.3413 648.024 51.0347 648.024 55.984V126.384C648.024 131.163 647.171 135.771 645.464 140.208C643.928 144.475 641.197 147.973 637.272 150.704C633.517 153.435 628.227 154.8 621.4 154.8H599.128V203.184ZM621.4 149.68C629.592 149.68 635.224 147.291 638.296 142.512C641.368 137.733 642.904 132.357 642.904 126.384V55.984C642.904 52.0587 642.221 48.304 640.856 44.72C639.661 40.9653 637.443 37.8933 634.2 35.504C631.128 33.1147 626.861 31.92 621.4 31.92H599.128V149.68H621.4Z"/>
<path d="M686.012 203.184C686.524 203.696 686.78 204.379 686.78 205.232C686.78 207.451 685.671 208.56 683.452 208.56C681.233 208.56 680.124 207.451 680.124 205.232C680.124 204.379 680.38 203.696 680.892 203.184V31.92H661.436C660.753 32.432 660.071 32.688 659.388 32.688C657.169 32.688 656.06 31.5787 656.06 29.36C656.06 27.1413 657.169 26.032 659.388 26.032C660.241 26.032 660.924 26.288 661.436 26.8H705.212C706.065 26.288 706.833 26.032 707.516 26.032C709.735 26.032 710.844 27.1413 710.844 29.36C710.844 31.5787 709.735 32.688 707.516 32.688C707.004 32.688 706.236 32.432 705.212 31.92H686.012V203.184Z"/>
<path d="M814.368 200.88C815.221 200.368 815.989 200.112 816.672 200.112C818.891 200.112 820 201.221 820 203.44C820 205.659 818.891 206.768 816.672 206.768C815.989 206.768 815.221 206.512 814.368 206H766.752V55.728C766.752 50.7787 767.52 46.1707 769.056 41.904C770.763 37.4667 773.579 33.8827 777.504 31.152C781.429 28.2507 786.805 26.8 793.632 26.8H814.368C815.221 26.288 815.989 26.032 816.672 26.032C818.891 26.032 820 27.1413 820 29.36C820 31.5787 818.891 32.688 816.672 32.688C815.989 32.688 815.221 32.432 814.368 31.92H793.632C788 31.92 783.563 33.1147 780.32 35.504C777.248 37.7227 775.029 40.7093 773.664 44.464C772.469 48.048 771.872 51.8027 771.872 55.728V78H806.944C807.797 77.488 808.565 77.232 809.248 77.232C811.467 77.232 812.576 78.3413 812.576 80.56C812.576 82.7787 811.467 83.888 809.248 83.888C808.565 83.888 807.797 83.632 806.944 83.12H771.872V200.88H814.368Z"/>
<path d="M888.506 203.184C889.018 203.696 889.274 204.379 889.274 205.232C889.274 207.451 888.165 208.56 885.946 208.56C883.727 208.56 882.618 207.451 882.618 205.232C882.618 204.379 882.874 203.696 883.386 203.184V33.968L840.378 79.792V203.184C840.89 203.696 841.146 204.379 841.146 205.232C841.146 207.451 840.037 208.56 837.818 208.56C835.599 208.56 834.49 207.451 834.49 205.232C834.49 204.379 834.746 203.696 835.258 203.184V29.872C834.746 29.0187 834.49 28.2507 834.49 27.568C834.49 25.3493 835.599 24.24 837.818 24.24C840.037 24.24 841.146 25.3493 841.146 27.568C841.146 28.2507 840.89 29.0187 840.378 29.872V72.624L883.386 26.8H888.506V203.184Z"/>
<path d="M962.988 180.144C962.988 184.923 962.135 189.531 960.428 193.968C958.721 198.235 955.905 201.733 951.98 204.464C948.225 207.195 943.02 208.56 936.364 208.56C929.537 208.56 924.161 207.195 920.236 204.464C916.481 201.733 913.751 198.235 912.044 193.968C910.508 189.531 909.74 184.923 909.74 180.144V53.424C909.74 48.4747 910.508 43.7813 912.044 39.344C913.751 34.9067 916.481 31.3227 920.236 28.592C924.161 25.6907 929.537 24.24 936.364 24.24C945.921 24.24 952.663 26.9707 956.588 32.432C960.684 37.8933 962.817 44.1227 962.988 51.12C963.5 51.632 963.756 52.4 963.756 53.424C963.756 55.6427 962.647 56.752 960.428 56.752C958.209 56.752 957.1 55.6427 957.1 53.424C957.1 52.5707 957.356 51.888 957.868 51.376C957.697 45.9147 955.991 40.88 952.748 36.272C949.676 31.664 944.215 29.36 936.364 29.36C930.903 29.36 926.551 30.5546 923.308 32.944C920.236 35.3333 918.017 38.4053 916.652 42.16C915.457 45.744 914.86 49.4987 914.86 53.424V180.144C914.86 186.117 916.396 191.493 919.468 196.272C922.54 201.051 928.172 203.44 936.364 203.44C944.556 203.44 950.188 201.051 953.26 196.272C956.332 191.493 957.868 186.117 957.868 180.144V134.576H938.412C937.9 135.088 937.217 135.344 936.364 135.344C934.145 135.344 933.036 134.235 933.036 132.016C933.036 129.797 934.145 128.688 936.364 128.688C937.217 128.688 937.9 128.944 938.412 129.456H962.988V180.144Z"/>
<path d="M987.128 203.184C987.64 203.696 987.896 204.379 987.896 205.232C987.896 207.451 986.787 208.56 984.568 208.56C982.349 208.56 981.24 207.451 981.24 205.232C981.24 204.379 981.496 203.696 982.008 203.184V29.872C981.496 29.0187 981.24 28.2507 981.24 27.568C981.24 25.3493 982.349 24.24 984.568 24.24C986.787 24.24 987.896 25.3493 987.896 27.568C987.896 28.2507 987.64 29.0187 987.128 29.872V203.184Z"/>
<path d="M1062.51 203.184C1063.02 203.696 1063.27 204.379 1063.27 205.232C1063.27 207.451 1062.16 208.56 1059.95 208.56C1057.73 208.56 1056.62 207.451 1056.62 205.232C1056.62 204.379 1056.87 203.696 1057.39 203.184V33.968L1014.38 79.792V203.184C1014.89 203.696 1015.15 204.379 1015.15 205.232C1015.15 207.451 1014.04 208.56 1011.82 208.56C1009.6 208.56 1008.49 207.451 1008.49 205.232C1008.49 204.379 1008.75 203.696 1009.26 203.184V29.872C1008.75 29.0187 1008.49 28.2507 1008.49 27.568C1008.49 25.3493 1009.6 24.24 1011.82 24.24C1014.04 24.24 1015.15 25.3493 1015.15 27.568C1015.15 28.2507 1014.89 29.0187 1014.38 29.872V72.624L1057.39 26.8H1062.51V203.184Z"/>
<path d="M1131.87 200.88C1132.72 200.368 1133.49 200.112 1134.17 200.112C1136.39 200.112 1137.5 201.221 1137.5 203.44C1137.5 205.659 1136.39 206.768 1134.17 206.768C1133.49 206.768 1132.72 206.512 1131.87 206H1084.25V55.728C1084.25 50.7787 1085.02 46.1707 1086.56 41.904C1088.26 37.4667 1091.08 33.8827 1095 31.152C1098.93 28.2507 1104.31 26.8 1111.13 26.8H1131.87C1132.72 26.288 1133.49 26.032 1134.17 26.032C1136.39 26.032 1137.5 27.1413 1137.5 29.36C1137.5 31.5787 1136.39 32.688 1134.17 32.688C1133.49 32.688 1132.72 32.432 1131.87 31.92H1111.13C1105.5 31.92 1101.06 33.1147 1097.82 35.504C1094.75 37.7227 1092.53 40.7093 1091.16 44.464C1089.97 48.048 1089.37 51.8027 1089.37 55.728V78H1124.44C1125.3 77.488 1126.07 77.232 1126.75 77.232C1128.97 77.232 1130.08 78.3413 1130.08 80.56C1130.08 82.7787 1128.97 83.888 1126.75 83.888C1126.07 83.888 1125.3 83.632 1124.44 83.12H1089.37V200.88H1131.87Z"/>
<path d="M1200.12 200.88C1200.97 200.368 1201.74 200.112 1202.42 200.112C1204.64 200.112 1205.75 201.221 1205.75 203.44C1205.75 205.659 1204.64 206.768 1202.42 206.768C1201.74 206.768 1200.97 206.512 1200.12 206H1152.5V55.728C1152.5 50.7787 1153.27 46.1707 1154.81 41.904C1156.51 37.4667 1159.33 33.8827 1163.25 31.152C1167.18 28.2507 1172.56 26.8 1179.38 26.8H1200.12C1200.97 26.288 1201.74 26.032 1202.42 26.032C1204.64 26.032 1205.75 27.1413 1205.75 29.36C1205.75 31.5787 1204.64 32.688 1202.42 32.688C1201.74 32.688 1200.97 32.432 1200.12 31.92H1179.38C1173.75 31.92 1169.31 33.1147 1166.07 35.504C1163 37.7227 1160.78 40.7093 1159.41 44.464C1158.22 48.048 1157.62 51.8027 1157.62 55.728V78H1192.69C1193.55 77.488 1194.32 77.232 1195 77.232C1197.22 77.232 1198.33 78.3413 1198.33 80.56C1198.33 82.7787 1197.22 83.888 1195 83.888C1194.32 83.888 1193.55 83.632 1192.69 83.12H1157.62V200.88H1200.12Z"/>
<path d="M1272.46 202.16C1273.15 202.16 1273.74 202.587 1274.26 203.44C1275.45 205.317 1275.02 206.853 1272.98 208.048C1272.29 208.56 1271.44 208.645 1270.42 208.304C1269.56 208.133 1268.97 207.707 1268.62 207.024C1268.28 206.341 1268.11 205.573 1268.11 204.72L1238.67 154.8H1226.13V203.184C1226.64 203.696 1226.9 204.379 1226.9 205.232C1226.9 207.451 1225.79 208.56 1223.57 208.56C1221.35 208.56 1220.24 207.451 1220.24 205.232C1220.24 204.379 1220.5 203.696 1221.01 203.184V26.8H1248.4C1255.23 26.8 1260.52 28.2507 1264.27 31.152C1268.2 33.8827 1270.93 37.4667 1272.46 41.904C1274.17 46.3413 1275.02 51.0347 1275.02 55.984V126.384C1275.02 131.163 1274.17 135.771 1272.46 140.208C1270.93 144.475 1268.2 147.973 1264.27 150.704C1260.52 153.435 1255.23 154.8 1248.4 154.8H1244.56L1272.46 202.16ZM1248.4 149.68C1256.59 149.68 1262.22 147.291 1265.3 142.512C1268.37 137.733 1269.9 132.357 1269.9 126.384V55.984C1269.9 52.0587 1269.22 48.304 1267.86 44.72C1266.66 40.9653 1264.44 37.8933 1261.2 35.504C1258.13 33.1147 1253.86 31.92 1248.4 31.92H1226.13V149.68H1248.4Z"/>
<path d="M1298.88 203.184C1299.39 203.696 1299.65 204.379 1299.65 205.232C1299.65 207.451 1298.54 208.56 1296.32 208.56C1294.1 208.56 1292.99 207.451 1292.99 205.232C1292.99 204.379 1293.25 203.696 1293.76 203.184V29.872C1293.25 29.0187 1292.99 28.2507 1292.99 27.568C1292.99 25.3493 1294.1 24.24 1296.32 24.24C1298.54 24.24 1299.65 25.3493 1299.65 27.568C1299.65 28.2507 1299.39 29.0187 1298.88 29.872V203.184Z"/>
<path d="M1374.26 203.184C1374.77 203.696 1375.02 204.379 1375.02 205.232C1375.02 207.451 1373.91 208.56 1371.7 208.56C1369.48 208.56 1368.37 207.451 1368.37 205.232C1368.37 204.379 1368.62 203.696 1369.14 203.184V33.968L1326.13 79.792V203.184C1326.64 203.696 1326.9 204.379 1326.9 205.232C1326.9 207.451 1325.79 208.56 1323.57 208.56C1321.35 208.56 1320.24 207.451 1320.24 205.232C1320.24 204.379 1320.5 203.696 1321.01 203.184V29.872C1320.5 29.0187 1320.24 28.2507 1320.24 27.568C1320.24 25.3493 1321.35 24.24 1323.57 24.24C1325.79 24.24 1326.9 25.3493 1326.9 27.568C1326.9 28.2507 1326.64 29.0187 1326.13 29.872V72.624L1369.14 26.8H1374.26V203.184Z"/>
<path d="M1448.74 180.144C1448.74 184.923 1447.88 189.531 1446.18 193.968C1444.47 198.235 1441.66 201.733 1437.73 204.464C1433.98 207.195 1428.77 208.56 1422.11 208.56C1415.29 208.56 1409.91 207.195 1405.99 204.464C1402.23 201.733 1399.5 198.235 1397.79 193.968C1396.26 189.531 1395.49 184.923 1395.49 180.144V53.424C1395.49 48.4747 1396.26 43.7813 1397.79 39.344C1399.5 34.9067 1402.23 31.3227 1405.99 28.592C1409.91 25.6907 1415.29 24.24 1422.11 24.24C1431.67 24.24 1438.41 26.9707 1442.34 32.432C1446.43 37.8933 1448.57 44.1227 1448.74 51.12C1449.25 51.632 1449.51 52.4 1449.51 53.424C1449.51 55.6427 1448.4 56.752 1446.18 56.752C1443.96 56.752 1442.85 55.6427 1442.85 53.424C1442.85 52.5707 1443.11 51.888 1443.62 51.376C1443.45 45.9147 1441.74 40.88 1438.5 36.272C1435.43 31.664 1429.96 29.36 1422.11 29.36C1416.65 29.36 1412.3 30.5546 1409.06 32.944C1405.99 35.3333 1403.77 38.4053 1402.4 42.16C1401.21 45.744 1400.61 49.4987 1400.61 53.424V180.144C1400.61 186.117 1402.15 191.493 1405.22 196.272C1408.29 201.051 1413.92 203.44 1422.11 203.44C1430.31 203.44 1435.94 201.051 1439.01 196.272C1442.08 191.493 1443.62 186.117 1443.62 180.144V134.576H1424.16C1423.65 135.088 1422.97 135.344 1422.11 135.344C1419.9 135.344 1418.79 134.235 1418.79 132.016C1418.79 129.797 1419.9 128.688 1422.11 128.688C1422.97 128.688 1423.65 128.944 1424.16 129.456H1448.74V180.144Z"/>
<path d="M1515.38 203.184C1515.89 203.696 1516.15 204.379 1516.15 205.232C1516.15 207.451 1515.04 208.56 1512.82 208.56C1510.6 208.56 1509.49 207.451 1509.49 205.232C1509.49 204.379 1509.75 203.696 1510.26 203.184V26.8H1537.65C1544.48 26.8 1549.77 28.2507 1553.52 31.152C1557.45 33.8827 1560.18 37.4667 1561.71 41.904C1563.42 46.3413 1564.27 51.0347 1564.27 55.984V126.384C1564.27 131.163 1563.42 135.771 1561.71 140.208C1560.18 144.475 1557.45 147.973 1553.52 150.704C1549.77 153.435 1544.48 154.8 1537.65 154.8H1515.38V203.184ZM1537.65 149.68C1545.84 149.68 1551.47 147.291 1554.55 142.512C1557.62 137.733 1559.15 132.357 1559.15 126.384V55.984C1559.15 52.0587 1558.47 48.304 1557.11 44.72C1555.91 40.9653 1553.69 37.8933 1550.45 35.504C1547.38 33.1147 1543.11 31.92 1537.65 31.92H1515.38V149.68H1537.65Z"/>
<path d="M1635 203.184C1635.51 203.696 1635.77 204.379 1635.77 205.232C1635.77 207.451 1634.66 208.56 1632.44 208.56C1630.22 208.56 1629.11 207.451 1629.11 205.232C1629.11 204.379 1629.37 203.696 1629.88 203.184V83.12H1586.87V203.184C1587.38 203.696 1587.64 204.379 1587.64 205.232C1587.64 207.451 1586.53 208.56 1584.31 208.56C1582.09 208.56 1580.98 207.451 1580.98 205.232C1580.98 204.379 1581.24 203.696 1581.75 203.184V55.984C1581.75 51.0347 1582.52 46.3413 1584.06 41.904C1585.76 37.4667 1588.58 33.8827 1592.5 31.152C1596.43 28.2507 1601.81 26.8 1608.63 26.8H1635V203.184ZM1629.88 78V31.92H1608.63C1603 31.92 1598.56 33.1147 1595.32 35.504C1592.25 37.8933 1590.03 40.9653 1588.66 44.72C1587.47 48.304 1586.87 52.0587 1586.87 55.984V78H1629.88Z"/>
<path d="M1678.26 203.184C1678.77 203.696 1679.03 204.379 1679.03 205.232C1679.03 207.451 1677.92 208.56 1675.7 208.56C1673.48 208.56 1672.37 207.451 1672.37 205.232C1672.37 204.379 1672.63 203.696 1673.14 203.184V31.92H1653.69C1653 32.432 1652.32 32.688 1651.64 32.688C1649.42 32.688 1648.31 31.5787 1648.31 29.36C1648.31 27.1413 1649.42 26.032 1651.64 26.032C1652.49 26.032 1653.17 26.288 1653.69 26.8H1697.46C1698.32 26.288 1699.08 26.032 1699.77 26.032C1701.98 26.032 1703.09 27.1413 1703.09 29.36C1703.09 31.5787 1701.98 32.688 1699.77 32.688C1699.25 32.688 1698.49 32.432 1697.46 31.92H1678.26V203.184Z"/>
<path d="M1738.26 203.184C1738.77 203.696 1739.03 204.379 1739.03 205.232C1739.03 207.451 1737.92 208.56 1735.7 208.56C1733.48 208.56 1732.37 207.451 1732.37 205.232C1732.37 204.379 1732.63 203.696 1733.14 203.184V31.92H1713.69C1713 32.432 1712.32 32.688 1711.64 32.688C1709.42 32.688 1708.31 31.5787 1708.31 29.36C1708.31 27.1413 1709.42 26.032 1711.64 26.032C1712.49 26.032 1713.17 26.288 1713.69 26.8H1757.46C1758.32 26.288 1759.08 26.032 1759.77 26.032C1761.98 26.032 1763.09 27.1413 1763.09 29.36C1763.09 31.5787 1761.98 32.688 1759.77 32.688C1759.25 32.688 1758.49 32.432 1757.46 31.92H1738.26V203.184Z"/>
<path d="M1821.37 200.88C1822.22 200.368 1822.99 200.112 1823.67 200.112C1825.89 200.112 1827 201.221 1827 203.44C1827 205.659 1825.89 206.768 1823.67 206.768C1822.99 206.768 1822.22 206.512 1821.37 206H1773.75V55.728C1773.75 50.7787 1774.52 46.1707 1776.06 41.904C1777.76 37.4667 1780.58 33.8827 1784.5 31.152C1788.43 28.2507 1793.81 26.8 1800.63 26.8H1821.37C1822.22 26.288 1822.99 26.032 1823.67 26.032C1825.89 26.032 1827 27.1413 1827 29.36C1827 31.5787 1825.89 32.688 1823.67 32.688C1822.99 32.688 1822.22 32.432 1821.37 31.92H1800.63C1795 31.92 1790.56 33.1147 1787.32 35.504C1784.25 37.7227 1782.03 40.7093 1780.66 44.464C1779.47 48.048 1778.87 51.8027 1778.87 55.728V78H1813.94C1814.8 77.488 1815.57 77.232 1816.25 77.232C1818.47 77.232 1819.58 78.3413 1819.58 80.56C1819.58 82.7787 1818.47 83.888 1816.25 83.888C1815.57 83.888 1814.8 83.632 1813.94 83.12H1778.87V200.88H1821.37Z"/>
<path d="M1893.71 202.16C1894.4 202.16 1894.99 202.587 1895.51 203.44C1896.7 205.317 1896.27 206.853 1894.23 208.048C1893.54 208.56 1892.69 208.645 1891.67 208.304C1890.81 208.133 1890.22 207.707 1889.87 207.024C1889.53 206.341 1889.36 205.573 1889.36 204.72L1859.92 154.8H1847.38V203.184C1847.89 203.696 1848.15 204.379 1848.15 205.232C1848.15 207.451 1847.04 208.56 1844.82 208.56C1842.6 208.56 1841.49 207.451 1841.49 205.232C1841.49 204.379 1841.75 203.696 1842.26 203.184V26.8H1869.65C1876.48 26.8 1881.77 28.2507 1885.52 31.152C1889.45 33.8827 1892.18 37.4667 1893.71 41.904C1895.42 46.3413 1896.27 51.0347 1896.27 55.984V126.384C1896.27 131.163 1895.42 135.771 1893.71 140.208C1892.18 144.475 1889.45 147.973 1885.52 150.704C1881.77 153.435 1876.48 154.8 1869.65 154.8H1865.81L1893.71 202.16ZM1869.65 149.68C1877.84 149.68 1883.47 147.291 1886.55 142.512C1889.62 137.733 1891.15 132.357 1891.15 126.384V55.984C1891.15 52.0587 1890.47 48.304 1889.11 44.72C1887.91 40.9653 1885.69 37.8933 1882.45 35.504C1879.38 33.1147 1875.11 31.92 1869.65 31.92H1847.38V149.68H1869.65Z"/>
<path d="M1968.26 203.184C1968.77 203.696 1969.02 204.379 1969.02 205.232C1969.02 207.451 1967.91 208.56 1965.7 208.56C1963.48 208.56 1962.37 207.451 1962.37 205.232C1962.37 204.379 1962.62 203.696 1963.14 203.184V33.968L1920.13 79.792V203.184C1920.64 203.696 1920.9 204.379 1920.9 205.232C1920.9 207.451 1919.79 208.56 1917.57 208.56C1915.35 208.56 1914.24 207.451 1914.24 205.232C1914.24 204.379 1914.5 203.696 1915.01 203.184V29.872C1914.5 29.0187 1914.24 28.2507 1914.24 27.568C1914.24 25.3493 1915.35 24.24 1917.57 24.24C1919.79 24.24 1920.9 25.3493 1920.9 27.568C1920.9 28.2507 1920.64 29.0187 1920.13 29.872V72.624L1963.14 26.8H1968.26V203.184Z"/>
<path d="M2040.18 180.144C2040.18 184.923 2039.32 189.531 2037.62 193.968C2035.91 198.235 2033.1 201.733 2029.17 204.464C2025.42 207.195 2020.12 208.56 2013.3 208.56C2003.91 208.56 1997.26 205.915 1993.33 200.624C1989.4 195.333 1987.19 189.275 1986.67 182.448C1986.16 181.936 1985.91 181.168 1985.91 180.144C1985.91 177.925 1987.02 176.816 1989.23 176.816C1991.45 176.816 1992.56 177.925 1992.56 180.144C1992.56 181.168 1992.31 181.936 1991.79 182.448C1991.96 188.251 1993.67 193.2 1996.91 197.296C2000.16 201.392 2005.62 203.44 2013.3 203.44C2021.49 203.44 2027.12 201.051 2030.19 196.272C2033.44 191.493 2035.06 186.117 2035.06 180.144V148.144C2035.06 139.099 2031.73 131.504 2025.07 125.36L1995.12 98.736C1990.86 94.9813 1988.21 91.1413 1987.19 87.216C1986.16 83.2907 1985.65 79.3653 1985.65 75.44V53.424C1985.65 48.4747 1986.5 43.7813 1988.21 39.344C1989.92 34.9067 1992.73 31.3227 1996.66 28.592C2000.58 25.6907 2005.87 24.24 2012.53 24.24C2022.09 24.24 2028.83 26.9707 2032.75 32.432C2036.68 37.8933 2038.81 44.1227 2039.15 51.12C2039.67 51.632 2039.92 52.4 2039.92 53.424C2039.92 55.6427 2038.81 56.752 2036.59 56.752C2034.38 56.752 2033.27 55.6427 2033.27 53.424C2033.27 52.5707 2033.52 51.888 2034.03 51.376C2033.69 45.9147 2031.9 40.88 2028.66 36.272C2025.59 31.664 2020.21 29.36 2012.53 29.36C2007.07 29.36 2002.72 30.5546 1999.47 32.944C1996.4 35.3333 1994.18 38.4053 1992.82 42.16C1991.45 45.744 1990.77 49.4987 1990.77 53.424V75.44C1990.94 79.7067 1991.54 83.5467 1992.56 86.96C1993.76 90.2027 1995.8 93.104 1998.71 95.664L2028.91 122.288C2033.35 126.555 2036.34 130.907 2037.87 135.344C2039.41 139.611 2040.18 143.877 2040.18 148.144V180.144Z"/>
</mask>
<path d="M135.176 114H126V104.04C134.201 83.4942 142.576 76.4978 165 73C161.965 98.4752 154.437 106.24 135.176 114Z" fill="#00B8B0"/>
<path d="M106.824 114H116V104.283C107.799 84.2382 99.4239 77.4125 77 74C80.0346 98.8538 87.5633 106.429 106.824 114Z" fill="#EB565E"/>
<path d="M106.824 124H116V133.717C107.799 153.762 99.4239 160.588 77 164C80.0346 139.146 87.5633 131.571 106.824 124Z" fill="#056D75"/>
<path d="M135.176 124H126V133.717C134.201 153.762 142.576 160.588 165 164C161.965 139.146 154.437 131.571 135.176 124Z" fill="#056D75"/>
<path d="M51 63L67 47C66.1653 52.7895 65.8252 56.0403 66.0303 61.8687C61.1 61.6033 57.6744 61.9524 51 63Z" fill="#9F4757"/>
<path d="M175 47L191 63C185.211 62.1653 181.96 61.8252 176.131 62.0303C176.397 57.1 176.048 53.6744 175 47Z" fill="#EC8224"/>
<path d="M191 174L175 191C175.835 184.849 176.175 181.395 175.97 175.202C180.9 175.484 184.326 175.113 191 174Z" fill="#056D75"/>
<path d="M51 174L67 191C66.1653 184.849 65.8252 181.395 66.0303 175.202C61.1 175.484 57.6744 175.113 51 174Z" fill="#056D75"/>
<path d="M85.3265 31.9388C80.6503 37.1381 78.6575 43.057 77 62.6779C81.6713 62.771 83.6712 63.2235 87.2857 64L113.408 37.7231C119.317 34.8726 122.469 35.2361 127.939 37.7231L155.367 64C158.845 63.0433 160.882 62.6426 165 62.6779C163.476 44.4769 161.941 37.017 157.163 31.9388L127.939 4.33979C122.674 0.194788 119.552 -0.411026 113.408 4.33979L85.3265 31.9388Z" fill="#EC8224"/>
<path d="M85.1636 205.019C80.4873 199.961 78.6575 193.413 77 174.325C81.6713 174.235 83.4892 173.755 87.1037 173L113.993 199.835C119.902 202.608 123.352 202.254 128.822 199.835L155.059 173C158.537 173.931 160.882 174.194 165 174.16C163.476 191.866 162.43 199.581 157.652 204.522C147.442 215.311 141.552 221.096 130.778 230.976C125.355 236.004 117.522 236.668 111.548 230.976C100.849 221.113 94.6462 215.451 85.1636 205.019Z" fill="#056D75"/>
<path d="M33.2405 156.592C38.7421 161.499 45.4091 163.261 66.1709 165C66.2694 160.099 66.1784 159.592 67 155.8L38.3117 127.543C33.0199 121.711 32.7096 116.596 37.8142 110.457L66.8342 81.8714C66.0466 77.6459 66.4467 76.5168 66.1709 73C49.6206 73.7815 40.3853 75.6749 33.2405 81.2222C20.8279 93.34 13.9472 100.123 4.03677 111.884C0.298273 116.984 -0.311331 120.239 4.03677 127.13C15.2501 139.225 21.598 145.819 33.2405 156.592Z" fill="#9F4757"/>
<path d="M208.611 156.562C202.864 161.884 196.372 163.671 175.973 165C175.874 160.081 175.818 160.367 175 156.562L203.517 127.805C208.896 122.662 208.465 116.847 203.517 110.03L175.483 81.3786C175.973 77.4357 176.01 77.3357 175.973 73C192.75 73.9844 200.899 74.692 207.625 80.0772L236.48 110.03C240.849 115.574 241.487 121.336 236.48 127.805L208.611 156.562Z" fill="#056D75"/>
<path d="M156 64.0819C136.225 70.4233 129.403 76.5367 121.5 90C113.361 76.5012 106.908 70.3443 87 64.0819L113.538 38.1638C119.546 35.0509 122.741 35.5159 128.3 38.1638L156 64.0819Z" fill="#FCB76C"/>
<path d="M155 173.19C135.605 166.926 128.424 161.3 120.673 148C112.691 161.335 106.526 167.004 87 173.19L113.644 199.862C119.536 202.938 123.231 202.478 128.683 199.862L155 173.19Z" fill="#00B8B0"/>
<path d="M67.113 82C72.4724 100.777 77.2721 110.267 93 118.991C77.4965 127.569 73.0769 135.567 67.2768 155L37.3172 125.67C33.9836 119.684 34.4816 117.033 37.3172 111.493L67.113 82Z" fill="#EB565E"/>
<path d="M175.333 81C171.077 98.7576 166.293 108.874 149 118.746C165.191 127.762 170.096 137.056 175.333 156L205.643 126.371C209.034 120.37 208.527 117.178 205.643 111.625L175.333 81Z" fill="#00B8B0"/>
<path d="M289.128 203.184C289.64 203.696 289.896 204.379 289.896 205.232C289.896 207.451 288.787 208.56 286.568 208.56C284.349 208.56 283.24 207.451 283.24 205.232C283.24 204.379 283.496 203.696 284.008 203.184V26.8H311.4C318.227 26.8 323.517 28.2507 327.272 31.152C331.197 33.8827 333.928 37.4667 335.464 41.904C337.171 46.3413 338.024 51.0347 338.024 55.984V126.384C338.024 131.163 337.171 135.771 335.464 140.208C333.928 144.475 331.197 147.973 327.272 150.704C323.517 153.435 318.227 154.8 311.4 154.8H289.128V203.184ZM311.4 149.68C319.592 149.68 325.224 147.291 328.296 142.512C331.368 137.733 332.904 132.357 332.904 126.384V55.984C332.904 52.0587 332.221 48.304 330.856 44.72C329.661 40.9653 327.443 37.8933 324.2 35.504C321.128 33.1147 316.861 31.92 311.4 31.92H289.128V149.68H311.4Z" fill="black"/>
<path d="M407.214 202.16C407.897 202.16 408.494 202.587 409.006 203.44C410.201 205.317 409.774 206.853 407.726 208.048C407.043 208.56 406.19 208.645 405.166 208.304C404.313 208.133 403.715 207.707 403.374 207.024C403.033 206.341 402.862 205.573 402.862 204.72L373.422 154.8H360.878V203.184C361.39 203.696 361.646 204.379 361.646 205.232C361.646 207.451 360.537 208.56 358.318 208.56C356.099 208.56 354.99 207.451 354.99 205.232C354.99 204.379 355.246 203.696 355.758 203.184V26.8H383.15C389.977 26.8 395.267 28.2507 399.022 31.152C402.947 33.8827 405.678 37.4667 407.214 41.904C408.921 46.3413 409.774 51.0347 409.774 55.984V126.384C409.774 131.163 408.921 135.771 407.214 140.208C405.678 144.475 402.947 147.973 399.022 150.704C395.267 153.435 389.977 154.8 383.15 154.8H379.31L407.214 202.16ZM383.15 149.68C391.342 149.68 396.974 147.291 400.046 142.512C403.118 137.733 404.654 132.357 404.654 126.384V55.984C404.654 52.0587 403.971 48.304 402.606 44.72C401.411 40.9653 399.193 37.8933 395.95 35.504C392.878 33.1147 388.611 31.92 383.15 31.92H360.878V149.68H383.15Z" fill="black"/>
<path d="M480.988 180.144C480.988 184.923 480.135 189.531 478.428 193.968C476.721 198.235 473.905 201.733 469.98 204.464C466.225 207.195 461.02 208.56 454.364 208.56C447.537 208.56 442.161 207.195 438.236 204.464C434.481 201.733 431.751 198.235 430.044 193.968C428.508 189.531 427.74 184.923 427.74 180.144V53.424C427.74 48.4747 428.508 43.7813 430.044 39.344C431.751 34.9067 434.481 31.3227 438.236 28.592C442.161 25.6907 447.537 24.24 454.364 24.24C461.02 24.24 466.225 25.6907 469.98 28.592C473.905 31.3227 476.721 34.9067 478.428 39.344C480.135 43.7813 480.988 48.4747 480.988 53.424V180.144ZM432.86 180.144C432.86 186.117 434.396 191.493 437.468 196.272C440.54 201.051 446.172 203.44 454.364 203.44C462.556 203.44 468.188 201.051 471.26 196.272C474.332 191.493 475.868 186.117 475.868 180.144V53.424C475.868 49.4987 475.185 45.744 473.82 42.16C472.625 38.4053 470.407 35.3333 467.164 32.944C464.092 30.5546 459.825 29.36 454.364 29.36C448.903 29.36 444.551 30.5546 441.308 32.944C438.236 35.3333 436.017 38.4053 434.652 42.16C433.457 45.744 432.86 49.4987 432.86 53.424V180.144Z" fill="black"/>
<path d="M571.89 203.184C572.402 203.696 572.658 204.379 572.658 205.232C572.658 207.451 571.549 208.56 569.33 208.56C567.111 208.56 566.002 207.451 566.002 205.232C566.002 204.379 566.258 203.696 566.77 203.184V37.296L539.634 83.12H534.258L507.378 37.552V203.184C507.89 203.696 508.146 204.379 508.146 205.232C508.146 207.451 507.037 208.56 504.818 208.56C502.599 208.56 501.49 207.451 501.49 205.232C501.49 204.379 501.746 203.696 502.258 203.184V29.872C501.746 29.0187 501.49 28.2507 501.49 27.568C501.49 25.3493 502.599 24.24 504.818 24.24C507.037 24.24 508.146 25.3493 508.146 27.568C508.146 27.7387 508.061 27.9947 507.89 28.336C507.89 28.5067 507.89 28.592 507.89 28.592L537.074 78L566.002 28.592V27.568C566.002 25.3493 567.111 24.24 569.33 24.24C571.549 24.24 572.658 25.3493 572.658 27.568C572.658 28.2507 572.402 29.0187 571.89 29.872V203.184Z" fill="black"/>
<path d="M599.128 203.184C599.64 203.696 599.896 204.379 599.896 205.232C599.896 207.451 598.787 208.56 596.568 208.56C594.349 208.56 593.24 207.451 593.24 205.232C593.24 204.379 593.496 203.696 594.008 203.184V26.8H621.4C628.227 26.8 633.517 28.2507 637.272 31.152C641.197 33.8827 643.928 37.4667 645.464 41.904C647.171 46.3413 648.024 51.0347 648.024 55.984V126.384C648.024 131.163 647.171 135.771 645.464 140.208C643.928 144.475 641.197 147.973 637.272 150.704C633.517 153.435 628.227 154.8 621.4 154.8H599.128V203.184ZM621.4 149.68C629.592 149.68 635.224 147.291 638.296 142.512C641.368 137.733 642.904 132.357 642.904 126.384V55.984C642.904 52.0587 642.221 48.304 640.856 44.72C639.661 40.9653 637.443 37.8933 634.2 35.504C631.128 33.1147 626.861 31.92 621.4 31.92H599.128V149.68H621.4Z" fill="black"/>
<path d="M686.012 203.184C686.524 203.696 686.78 204.379 686.78 205.232C686.78 207.451 685.671 208.56 683.452 208.56C681.233 208.56 680.124 207.451 680.124 205.232C680.124 204.379 680.38 203.696 680.892 203.184V31.92H661.436C660.753 32.432 660.071 32.688 659.388 32.688C657.169 32.688 656.06 31.5787 656.06 29.36C656.06 27.1413 657.169 26.032 659.388 26.032C660.241 26.032 660.924 26.288 661.436 26.8H705.212C706.065 26.288 706.833 26.032 707.516 26.032C709.735 26.032 710.844 27.1413 710.844 29.36C710.844 31.5787 709.735 32.688 707.516 32.688C707.004 32.688 706.236 32.432 705.212 31.92H686.012V203.184Z" fill="black"/>
<path d="M814.368 200.88C815.221 200.368 815.989 200.112 816.672 200.112C818.891 200.112 820 201.221 820 203.44C820 205.659 818.891 206.768 816.672 206.768C815.989 206.768 815.221 206.512 814.368 206H766.752V55.728C766.752 50.7787 767.52 46.1707 769.056 41.904C770.763 37.4667 773.579 33.8827 777.504 31.152C781.429 28.2507 786.805 26.8 793.632 26.8H814.368C815.221 26.288 815.989 26.032 816.672 26.032C818.891 26.032 820 27.1413 820 29.36C820 31.5787 818.891 32.688 816.672 32.688C815.989 32.688 815.221 32.432 814.368 31.92H793.632C788 31.92 783.563 33.1147 780.32 35.504C777.248 37.7227 775.029 40.7093 773.664 44.464C772.469 48.048 771.872 51.8027 771.872 55.728V78H806.944C807.797 77.488 808.565 77.232 809.248 77.232C811.467 77.232 812.576 78.3413 812.576 80.56C812.576 82.7787 811.467 83.888 809.248 83.888C808.565 83.888 807.797 83.632 806.944 83.12H771.872V200.88H814.368Z" fill="black"/>
<path d="M888.506 203.184C889.018 203.696 889.274 204.379 889.274 205.232C889.274 207.451 888.165 208.56 885.946 208.56C883.727 208.56 882.618 207.451 882.618 205.232C882.618 204.379 882.874 203.696 883.386 203.184V33.968L840.378 79.792V203.184C840.89 203.696 841.146 204.379 841.146 205.232C841.146 207.451 840.037 208.56 837.818 208.56C835.599 208.56 834.49 207.451 834.49 205.232C834.49 204.379 834.746 203.696 835.258 203.184V29.872C834.746 29.0187 834.49 28.2507 834.49 27.568C834.49 25.3493 835.599 24.24 837.818 24.24C840.037 24.24 841.146 25.3493 841.146 27.568C841.146 28.2507 840.89 29.0187 840.378 29.872V72.624L883.386 26.8H888.506V203.184Z" fill="black"/>
<path d="M962.988 180.144C962.988 184.923 962.135 189.531 960.428 193.968C958.721 198.235 955.905 201.733 951.98 204.464C948.225 207.195 943.02 208.56 936.364 208.56C929.537 208.56 924.161 207.195 920.236 204.464C916.481 201.733 913.751 198.235 912.044 193.968C910.508 189.531 909.74 184.923 909.74 180.144V53.424C909.74 48.4747 910.508 43.7813 912.044 39.344C913.751 34.9067 916.481 31.3227 920.236 28.592C924.161 25.6907 929.537 24.24 936.364 24.24C945.921 24.24 952.663 26.9707 956.588 32.432C960.684 37.8933 962.817 44.1227 962.988 51.12C963.5 51.632 963.756 52.4 963.756 53.424C963.756 55.6427 962.647 56.752 960.428 56.752C958.209 56.752 957.1 55.6427 957.1 53.424C957.1 52.5707 957.356 51.888 957.868 51.376C957.697 45.9147 955.991 40.88 952.748 36.272C949.676 31.664 944.215 29.36 936.364 29.36C930.903 29.36 926.551 30.5546 923.308 32.944C920.236 35.3333 918.017 38.4053 916.652 42.16C915.457 45.744 914.86 49.4987 914.86 53.424V180.144C914.86 186.117 916.396 191.493 919.468 196.272C922.54 201.051 928.172 203.44 936.364 203.44C944.556 203.44 950.188 201.051 953.26 196.272C956.332 191.493 957.868 186.117 957.868 180.144V134.576H938.412C937.9 135.088 937.217 135.344 936.364 135.344C934.145 135.344 933.036 134.235 933.036 132.016C933.036 129.797 934.145 128.688 936.364 128.688C937.217 128.688 937.9 128.944 938.412 129.456H962.988V180.144Z" fill="black"/>
<path d="M987.128 203.184C987.64 203.696 987.896 204.379 987.896 205.232C987.896 207.451 986.787 208.56 984.568 208.56C982.349 208.56 981.24 207.451 981.24 205.232C981.24 204.379 981.496 203.696 982.008 203.184V29.872C981.496 29.0187 981.24 28.2507 981.24 27.568C981.24 25.3493 982.349 24.24 984.568 24.24C986.787 24.24 987.896 25.3493 987.896 27.568C987.896 28.2507 987.64 29.0187 987.128 29.872V203.184Z" fill="black"/>
<path d="M1062.51 203.184C1063.02 203.696 1063.27 204.379 1063.27 205.232C1063.27 207.451 1062.16 208.56 1059.95 208.56C1057.73 208.56 1056.62 207.451 1056.62 205.232C1056.62 204.379 1056.87 203.696 1057.39 203.184V33.968L1014.38 79.792V203.184C1014.89 203.696 1015.15 204.379 1015.15 205.232C1015.15 207.451 1014.04 208.56 1011.82 208.56C1009.6 208.56 1008.49 207.451 1008.49 205.232C1008.49 204.379 1008.75 203.696 1009.26 203.184V29.872C1008.75 29.0187 1008.49 28.2507 1008.49 27.568C1008.49 25.3493 1009.6 24.24 1011.82 24.24C1014.04 24.24 1015.15 25.3493 1015.15 27.568C1015.15 28.2507 1014.89 29.0187 1014.38 29.872V72.624L1057.39 26.8H1062.51V203.184Z" fill="black"/>
<path d="M1131.87 200.88C1132.72 200.368 1133.49 200.112 1134.17 200.112C1136.39 200.112 1137.5 201.221 1137.5 203.44C1137.5 205.659 1136.39 206.768 1134.17 206.768C1133.49 206.768 1132.72 206.512 1131.87 206H1084.25V55.728C1084.25 50.7787 1085.02 46.1707 1086.56 41.904C1088.26 37.4667 1091.08 33.8827 1095 31.152C1098.93 28.2507 1104.31 26.8 1111.13 26.8H1131.87C1132.72 26.288 1133.49 26.032 1134.17 26.032C1136.39 26.032 1137.5 27.1413 1137.5 29.36C1137.5 31.5787 1136.39 32.688 1134.17 32.688C1133.49 32.688 1132.72 32.432 1131.87 31.92H1111.13C1105.5 31.92 1101.06 33.1147 1097.82 35.504C1094.75 37.7227 1092.53 40.7093 1091.16 44.464C1089.97 48.048 1089.37 51.8027 1089.37 55.728V78H1124.44C1125.3 77.488 1126.07 77.232 1126.75 77.232C1128.97 77.232 1130.08 78.3413 1130.08 80.56C1130.08 82.7787 1128.97 83.888 1126.75 83.888C1126.07 83.888 1125.3 83.632 1124.44 83.12H1089.37V200.88H1131.87Z" fill="black"/>
<path d="M1200.12 200.88C1200.97 200.368 1201.74 200.112 1202.42 200.112C1204.64 200.112 1205.75 201.221 1205.75 203.44C1205.75 205.659 1204.64 206.768 1202.42 206.768C1201.74 206.768 1200.97 206.512 1200.12 206H1152.5V55.728C1152.5 50.7787 1153.27 46.1707 1154.81 41.904C1156.51 37.4667 1159.33 33.8827 1163.25 31.152C1167.18 28.2507 1172.56 26.8 1179.38 26.8H1200.12C1200.97 26.288 1201.74 26.032 1202.42 26.032C1204.64 26.032 1205.75 27.1413 1205.75 29.36C1205.75 31.5787 1204.64 32.688 1202.42 32.688C1201.74 32.688 1200.97 32.432 1200.12 31.92H1179.38C1173.75 31.92 1169.31 33.1147 1166.07 35.504C1163 37.7227 1160.78 40.7093 1159.41 44.464C1158.22 48.048 1157.62 51.8027 1157.62 55.728V78H1192.69C1193.55 77.488 1194.32 77.232 1195 77.232C1197.22 77.232 1198.33 78.3413 1198.33 80.56C1198.33 82.7787 1197.22 83.888 1195 83.888C1194.32 83.888 1193.55 83.632 1192.69 83.12H1157.62V200.88H1200.12Z" fill="black"/>
<path d="M1272.46 202.16C1273.15 202.16 1273.74 202.587 1274.26 203.44C1275.45 205.317 1275.02 206.853 1272.98 208.048C1272.29 208.56 1271.44 208.645 1270.42 208.304C1269.56 208.133 1268.97 207.707 1268.62 207.024C1268.28 206.341 1268.11 205.573 1268.11 204.72L1238.67 154.8H1226.13V203.184C1226.64 203.696 1226.9 204.379 1226.9 205.232C1226.9 207.451 1225.79 208.56 1223.57 208.56C1221.35 208.56 1220.24 207.451 1220.24 205.232C1220.24 204.379 1220.5 203.696 1221.01 203.184V26.8H1248.4C1255.23 26.8 1260.52 28.2507 1264.27 31.152C1268.2 33.8827 1270.93 37.4667 1272.46 41.904C1274.17 46.3413 1275.02 51.0347 1275.02 55.984V126.384C1275.02 131.163 1274.17 135.771 1272.46 140.208C1270.93 144.475 1268.2 147.973 1264.27 150.704C1260.52 153.435 1255.23 154.8 1248.4 154.8H1244.56L1272.46 202.16ZM1248.4 149.68C1256.59 149.68 1262.22 147.291 1265.3 142.512C1268.37 137.733 1269.9 132.357 1269.9 126.384V55.984C1269.9 52.0587 1269.22 48.304 1267.86 44.72C1266.66 40.9653 1264.44 37.8933 1261.2 35.504C1258.13 33.1147 1253.86 31.92 1248.4 31.92H1226.13V149.68H1248.4Z" fill="black"/>
<path d="M1298.88 203.184C1299.39 203.696 1299.65 204.379 1299.65 205.232C1299.65 207.451 1298.54 208.56 1296.32 208.56C1294.1 208.56 1292.99 207.451 1292.99 205.232C1292.99 204.379 1293.25 203.696 1293.76 203.184V29.872C1293.25 29.0187 1292.99 28.2507 1292.99 27.568C1292.99 25.3493 1294.1 24.24 1296.32 24.24C1298.54 24.24 1299.65 25.3493 1299.65 27.568C1299.65 28.2507 1299.39 29.0187 1298.88 29.872V203.184Z" fill="black"/>
<path d="M1374.26 203.184C1374.77 203.696 1375.02 204.379 1375.02 205.232C1375.02 207.451 1373.91 208.56 1371.7 208.56C1369.48 208.56 1368.37 207.451 1368.37 205.232C1368.37 204.379 1368.62 203.696 1369.14 203.184V33.968L1326.13 79.792V203.184C1326.64 203.696 1326.9 204.379 1326.9 205.232C1326.9 207.451 1325.79 208.56 1323.57 208.56C1321.35 208.56 1320.24 207.451 1320.24 205.232C1320.24 204.379 1320.5 203.696 1321.01 203.184V29.872C1320.5 29.0187 1320.24 28.2507 1320.24 27.568C1320.24 25.3493 1321.35 24.24 1323.57 24.24C1325.79 24.24 1326.9 25.3493 1326.9 27.568C1326.9 28.2507 1326.64 29.0187 1326.13 29.872V72.624L1369.14 26.8H1374.26V203.184Z" fill="black"/>
<path d="M1448.74 180.144C1448.74 184.923 1447.88 189.531 1446.18 193.968C1444.47 198.235 1441.66 201.733 1437.73 204.464C1433.98 207.195 1428.77 208.56 1422.11 208.56C1415.29 208.56 1409.91 207.195 1405.99 204.464C1402.23 201.733 1399.5 198.235 1397.79 193.968C1396.26 189.531 1395.49 184.923 1395.49 180.144V53.424C1395.49 48.4747 1396.26 43.7813 1397.79 39.344C1399.5 34.9067 1402.23 31.3227 1405.99 28.592C1409.91 25.6907 1415.29 24.24 1422.11 24.24C1431.67 24.24 1438.41 26.9707 1442.34 32.432C1446.43 37.8933 1448.57 44.1227 1448.74 51.12C1449.25 51.632 1449.51 52.4 1449.51 53.424C1449.51 55.6427 1448.4 56.752 1446.18 56.752C1443.96 56.752 1442.85 55.6427 1442.85 53.424C1442.85 52.5707 1443.11 51.888 1443.62 51.376C1443.45 45.9147 1441.74 40.88 1438.5 36.272C1435.43 31.664 1429.96 29.36 1422.11 29.36C1416.65 29.36 1412.3 30.5546 1409.06 32.944C1405.99 35.3333 1403.77 38.4053 1402.4 42.16C1401.21 45.744 1400.61 49.4987 1400.61 53.424V180.144C1400.61 186.117 1402.15 191.493 1405.22 196.272C1408.29 201.051 1413.92 203.44 1422.11 203.44C1430.31 203.44 1435.94 201.051 1439.01 196.272C1442.08 191.493 1443.62 186.117 1443.62 180.144V134.576H1424.16C1423.65 135.088 1422.97 135.344 1422.11 135.344C1419.9 135.344 1418.79 134.235 1418.79 132.016C1418.79 129.797 1419.9 128.688 1422.11 128.688C1422.97 128.688 1423.65 128.944 1424.16 129.456H1448.74V180.144Z" fill="black"/>
<path d="M1515.38 203.184C1515.89 203.696 1516.15 204.379 1516.15 205.232C1516.15 207.451 1515.04 208.56 1512.82 208.56C1510.6 208.56 1509.49 207.451 1509.49 205.232C1509.49 204.379 1509.75 203.696 1510.26 203.184V26.8H1537.65C1544.48 26.8 1549.77 28.2507 1553.52 31.152C1557.45 33.8827 1560.18 37.4667 1561.71 41.904C1563.42 46.3413 1564.27 51.0347 1564.27 55.984V126.384C1564.27 131.163 1563.42 135.771 1561.71 140.208C1560.18 144.475 1557.45 147.973 1553.52 150.704C1549.77 153.435 1544.48 154.8 1537.65 154.8H1515.38V203.184ZM1537.65 149.68C1545.84 149.68 1551.47 147.291 1554.55 142.512C1557.62 137.733 1559.15 132.357 1559.15 126.384V55.984C1559.15 52.0587 1558.47 48.304 1557.11 44.72C1555.91 40.9653 1553.69 37.8933 1550.45 35.504C1547.38 33.1147 1543.11 31.92 1537.65 31.92H1515.38V149.68H1537.65Z" fill="black"/>
<path d="M1635 203.184C1635.51 203.696 1635.77 204.379 1635.77 205.232C1635.77 207.451 1634.66 208.56 1632.44 208.56C1630.22 208.56 1629.11 207.451 1629.11 205.232C1629.11 204.379 1629.37 203.696 1629.88 203.184V83.12H1586.87V203.184C1587.38 203.696 1587.64 204.379 1587.64 205.232C1587.64 207.451 1586.53 208.56 1584.31 208.56C1582.09 208.56 1580.98 207.451 1580.98 205.232C1580.98 204.379 1581.24 203.696 1581.75 203.184V55.984C1581.75 51.0347 1582.52 46.3413 1584.06 41.904C1585.76 37.4667 1588.58 33.8827 1592.5 31.152C1596.43 28.2507 1601.81 26.8 1608.63 26.8H1635V203.184ZM1629.88 78V31.92H1608.63C1603 31.92 1598.56 33.1147 1595.32 35.504C1592.25 37.8933 1590.03 40.9653 1588.66 44.72C1587.47 48.304 1586.87 52.0587 1586.87 55.984V78H1629.88Z" fill="black"/>
<path d="M1678.26 203.184C1678.77 203.696 1679.03 204.379 1679.03 205.232C1679.03 207.451 1677.92 208.56 1675.7 208.56C1673.48 208.56 1672.37 207.451 1672.37 205.232C1672.37 204.379 1672.63 203.696 1673.14 203.184V31.92H1653.69C1653 32.432 1652.32 32.688 1651.64 32.688C1649.42 32.688 1648.31 31.5787 1648.31 29.36C1648.31 27.1413 1649.42 26.032 1651.64 26.032C1652.49 26.032 1653.17 26.288 1653.69 26.8H1697.46C1698.32 26.288 1699.08 26.032 1699.77 26.032C1701.98 26.032 1703.09 27.1413 1703.09 29.36C1703.09 31.5787 1701.98 32.688 1699.77 32.688C1699.25 32.688 1698.49 32.432 1697.46 31.92H1678.26V203.184Z" fill="black"/>
<path d="M1738.26 203.184C1738.77 203.696 1739.03 204.379 1739.03 205.232C1739.03 207.451 1737.92 208.56 1735.7 208.56C1733.48 208.56 1732.37 207.451 1732.37 205.232C1732.37 204.379 1732.63 203.696 1733.14 203.184V31.92H1713.69C1713 32.432 1712.32 32.688 1711.64 32.688C1709.42 32.688 1708.31 31.5787 1708.31 29.36C1708.31 27.1413 1709.42 26.032 1711.64 26.032C1712.49 26.032 1713.17 26.288 1713.69 26.8H1757.46C1758.32 26.288 1759.08 26.032 1759.77 26.032C1761.98 26.032 1763.09 27.1413 1763.09 29.36C1763.09 31.5787 1761.98 32.688 1759.77 32.688C1759.25 32.688 1758.49 32.432 1757.46 31.92H1738.26V203.184Z" fill="black"/>
<path d="M1821.37 200.88C1822.22 200.368 1822.99 200.112 1823.67 200.112C1825.89 200.112 1827 201.221 1827 203.44C1827 205.659 1825.89 206.768 1823.67 206.768C1822.99 206.768 1822.22 206.512 1821.37 206H1773.75V55.728C1773.75 50.7787 1774.52 46.1707 1776.06 41.904C1777.76 37.4667 1780.58 33.8827 1784.5 31.152C1788.43 28.2507 1793.81 26.8 1800.63 26.8H1821.37C1822.22 26.288 1822.99 26.032 1823.67 26.032C1825.89 26.032 1827 27.1413 1827 29.36C1827 31.5787 1825.89 32.688 1823.67 32.688C1822.99 32.688 1822.22 32.432 1821.37 31.92H1800.63C1795 31.92 1790.56 33.1147 1787.32 35.504C1784.25 37.7227 1782.03 40.7093 1780.66 44.464C1779.47 48.048 1778.87 51.8027 1778.87 55.728V78H1813.94C1814.8 77.488 1815.57 77.232 1816.25 77.232C1818.47 77.232 1819.58 78.3413 1819.58 80.56C1819.58 82.7787 1818.47 83.888 1816.25 83.888C1815.57 83.888 1814.8 83.632 1813.94 83.12H1778.87V200.88H1821.37Z" fill="black"/>
<path d="M1893.71 202.16C1894.4 202.16 1894.99 202.587 1895.51 203.44C1896.7 205.317 1896.27 206.853 1894.23 208.048C1893.54 208.56 1892.69 208.645 1891.67 208.304C1890.81 208.133 1890.22 207.707 1889.87 207.024C1889.53 206.341 1889.36 205.573 1889.36 204.72L1859.92 154.8H1847.38V203.184C1847.89 203.696 1848.15 204.379 1848.15 205.232C1848.15 207.451 1847.04 208.56 1844.82 208.56C1842.6 208.56 1841.49 207.451 1841.49 205.232C1841.49 204.379 1841.75 203.696 1842.26 203.184V26.8H1869.65C1876.48 26.8 1881.77 28.2507 1885.52 31.152C1889.45 33.8827 1892.18 37.4667 1893.71 41.904C1895.42 46.3413 1896.27 51.0347 1896.27 55.984V126.384C1896.27 131.163 1895.42 135.771 1893.71 140.208C1892.18 144.475 1889.45 147.973 1885.52 150.704C1881.77 153.435 1876.48 154.8 1869.65 154.8H1865.81L1893.71 202.16ZM1869.65 149.68C1877.84 149.68 1883.47 147.291 1886.55 142.512C1889.62 137.733 1891.15 132.357 1891.15 126.384V55.984C1891.15 52.0587 1890.47 48.304 1889.11 44.72C1887.91 40.9653 1885.69 37.8933 1882.45 35.504C1879.38 33.1147 1875.11 31.92 1869.65 31.92H1847.38V149.68H1869.65Z" fill="black"/>
<path d="M1968.26 203.184C1968.77 203.696 1969.02 204.379 1969.02 205.232C1969.02 207.451 1967.91 208.56 1965.7 208.56C1963.48 208.56 1962.37 207.451 1962.37 205.232C1962.37 204.379 1962.62 203.696 1963.14 203.184V33.968L1920.13 79.792V203.184C1920.64 203.696 1920.9 204.379 1920.9 205.232C1920.9 207.451 1919.79 208.56 1917.57 208.56C1915.35 208.56 1914.24 207.451 1914.24 205.232C1914.24 204.379 1914.5 203.696 1915.01 203.184V29.872C1914.5 29.0187 1914.24 28.2507 1914.24 27.568C1914.24 25.3493 1915.35 24.24 1917.57 24.24C1919.79 24.24 1920.9 25.3493 1920.9 27.568C1920.9 28.2507 1920.64 29.0187 1920.13 29.872V72.624L1963.14 26.8H1968.26V203.184Z" fill="black"/>
<path d="M2040.18 180.144C2040.18 184.923 2039.32 189.531 2037.62 193.968C2035.91 198.235 2033.1 201.733 2029.17 204.464C2025.42 207.195 2020.12 208.56 2013.3 208.56C2003.91 208.56 1997.26 205.915 1993.33 200.624C1989.4 195.333 1987.19 189.275 1986.67 182.448C1986.16 181.936 1985.91 181.168 1985.91 180.144C1985.91 177.925 1987.02 176.816 1989.23 176.816C1991.45 176.816 1992.56 177.925 1992.56 180.144C1992.56 181.168 1992.31 181.936 1991.79 182.448C1991.96 188.251 1993.67 193.2 1996.91 197.296C2000.16 201.392 2005.62 203.44 2013.3 203.44C2021.49 203.44 2027.12 201.051 2030.19 196.272C2033.44 191.493 2035.06 186.117 2035.06 180.144V148.144C2035.06 139.099 2031.73 131.504 2025.07 125.36L1995.12 98.736C1990.86 94.9813 1988.21 91.1413 1987.19 87.216C1986.16 83.2907 1985.65 79.3653 1985.65 75.44V53.424C1985.65 48.4747 1986.5 43.7813 1988.21 39.344C1989.92 34.9067 1992.73 31.3227 1996.66 28.592C2000.58 25.6907 2005.87 24.24 2012.53 24.24C2022.09 24.24 2028.83 26.9707 2032.75 32.432C2036.68 37.8933 2038.81 44.1227 2039.15 51.12C2039.67 51.632 2039.92 52.4 2039.92 53.424C2039.92 55.6427 2038.81 56.752 2036.59 56.752C2034.38 56.752 2033.27 55.6427 2033.27 53.424C2033.27 52.5707 2033.52 51.888 2034.03 51.376C2033.69 45.9147 2031.9 40.88 2028.66 36.272C2025.59 31.664 2020.21 29.36 2012.53 29.36C2007.07 29.36 2002.72 30.5546 1999.47 32.944C1996.4 35.3333 1994.18 38.4053 1992.82 42.16C1991.45 45.744 1990.77 49.4987 1990.77 53.424V75.44C1990.94 79.7067 1991.54 83.5467 1992.56 86.96C1993.76 90.2027 1995.8 93.104 1998.71 95.664L2028.91 122.288C2033.35 126.555 2036.34 130.907 2037.87 135.344C2039.41 139.611 2040.18 143.877 2040.18 148.144V180.144Z" fill="black"/>
<path d="M135.176 114H126V104.04C134.201 83.4942 142.576 76.4978 165 73C161.965 98.4752 154.437 106.24 135.176 114Z" stroke="black" stroke-width="2" mask="url(#path-1-outside-1_102_5)"/>
<path d="M106.824 114H116V104.283C107.799 84.2382 99.4239 77.4125 77 74C80.0346 98.8538 87.5633 106.429 106.824 114Z" stroke="black" stroke-width="2" mask="url(#path-1-outside-1_102_5)"/>
<path d="M106.824 124H116V133.717C107.799 153.762 99.4239 160.588 77 164C80.0346 139.146 87.5633 131.571 106.824 124Z" stroke="black" stroke-width="2" mask="url(#path-1-outside-1_102_5)"/>
<path d="M135.176 124H126V133.717C134.201 153.762 142.576 160.588 165 164C161.965 139.146 154.437 131.571 135.176 124Z" stroke="black" stroke-width="2" mask="url(#path-1-outside-1_102_5)"/>
<path d="M51 63L67 47C66.1653 52.7895 65.8252 56.0403 66.0303 61.8687C61.1 61.6033 57.6744 61.9524 51 63Z" stroke="black" stroke-width="2" mask="url(#path-1-outside-1_102_5)"/>
<path d="M175 47L191 63C185.211 62.1653 181.96 61.8252 176.131 62.0303C176.397 57.1 176.048 53.6744 175 47Z" stroke="black" stroke-width="2" mask="url(#path-1-outside-1_102_5)"/>
<path d="M191 174L175 191C175.835 184.849 176.175 181.395 175.97 175.202C180.9 175.484 184.326 175.113 191 174Z" stroke="black" stroke-width="2" mask="url(#path-1-outside-1_102_5)"/>
<path d="M51 174L67 191C66.1653 184.849 65.8252 181.395 66.0303 175.202C61.1 175.484 57.6744 175.113 51 174Z" stroke="black" stroke-width="2" mask="url(#path-1-outside-1_102_5)"/>
<path d="M85.3265 31.9388C80.6503 37.1381 78.6575 43.057 77 62.6779C81.6713 62.771 83.6712 63.2235 87.2857 64L113.408 37.7231C119.317 34.8726 122.469 35.2361 127.939 37.7231L155.367 64C158.845 63.0433 160.882 62.6426 165 62.6779C163.476 44.4769 161.941 37.017 157.163 31.9388L127.939 4.33979C122.674 0.194788 119.552 -0.411026 113.408 4.33979L85.3265 31.9388Z" stroke="black" stroke-width="2" mask="url(#path-1-outside-1_102_5)"/>
<path d="M85.1636 205.019C80.4873 199.961 78.6575 193.413 77 174.325C81.6713 174.235 83.4892 173.755 87.1037 173L113.993 199.835C119.902 202.608 123.352 202.254 128.822 199.835L155.059 173C158.537 173.931 160.882 174.194 165 174.16C163.476 191.866 162.43 199.581 157.652 204.522C147.442 215.311 141.552 221.096 130.778 230.976C125.355 236.004 117.522 236.668 111.548 230.976C100.849 221.113 94.6462 215.451 85.1636 205.019Z" stroke="black" stroke-width="2" mask="url(#path-1-outside-1_102_5)"/>
<path d="M33.2405 156.592C38.7421 161.499 45.4091 163.261 66.1709 165C66.2694 160.099 66.1784 159.592 67 155.8L38.3117 127.543C33.0199 121.711 32.7096 116.596 37.8142 110.457L66.8342 81.8714C66.0466 77.6459 66.4467 76.5168 66.1709 73C49.6206 73.7815 40.3853 75.6749 33.2405 81.2222C20.8279 93.34 13.9472 100.123 4.03677 111.884C0.298273 116.984 -0.311331 120.239 4.03677 127.13C15.2501 139.225 21.598 145.819 33.2405 156.592Z" stroke="black" stroke-width="2" mask="url(#path-1-outside-1_102_5)"/>
<path d="M208.611 156.562C202.864 161.884 196.372 163.671 175.973 165C175.874 160.081 175.818 160.367 175 156.562L203.517 127.805C208.896 122.662 208.465 116.847 203.517 110.03L175.483 81.3786C175.973 77.4357 176.01 77.3357 175.973 73C192.75 73.9844 200.899 74.692 207.625 80.0772L236.48 110.03C240.849 115.574 241.487 121.336 236.48 127.805L208.611 156.562Z" stroke="black" stroke-width="2" mask="url(#path-1-outside-1_102_5)"/>
<path d="M156 64.0819C136.225 70.4233 129.403 76.5367 121.5 90C113.361 76.5012 106.908 70.3443 87 64.0819L113.538 38.1638C119.546 35.0509 122.741 35.5159 128.3 38.1638L156 64.0819Z" stroke="black" stroke-width="2" mask="url(#path-1-outside-1_102_5)"/>
<path d="M155 173.19C135.605 166.926 128.424 161.3 120.673 148C112.691 161.335 106.526 167.004 87 173.19L113.644 199.862C119.536 202.938 123.231 202.478 128.683 199.862L155 173.19Z" stroke="black" stroke-width="2" mask="url(#path-1-outside-1_102_5)"/>
<path d="M67.113 82C72.4724 100.777 77.2721 110.267 93 118.991C77.4965 127.569 73.0769 135.567 67.2768 155L37.3172 125.67C33.9836 119.684 34.4816 117.033 37.3172 111.493L67.113 82Z" stroke="black" stroke-width="2" mask="url(#path-1-outside-1_102_5)"/>
<path d="M175.333 81C171.077 98.7576 166.293 108.874 149 118.746C165.191 127.762 170.096 137.056 175.333 156L205.643 126.371C209.034 120.37 208.527 117.178 205.643 111.625L175.333 81Z" stroke="black" stroke-width="2" mask="url(#path-1-outside-1_102_5)"/>
<path d="M289.128 203.184C289.64 203.696 289.896 204.379 289.896 205.232C289.896 207.451 288.787 208.56 286.568 208.56C284.349 208.56 283.24 207.451 283.24 205.232C283.24 204.379 283.496 203.696 284.008 203.184V26.8H311.4C318.227 26.8 323.517 28.2507 327.272 31.152C331.197 33.8827 333.928 37.4667 335.464 41.904C337.171 46.3413 338.024 51.0347 338.024 55.984V126.384C338.024 131.163 337.171 135.771 335.464 140.208C333.928 144.475 331.197 147.973 327.272 150.704C323.517 153.435 318.227 154.8 311.4 154.8H289.128V203.184ZM311.4 149.68C319.592 149.68 325.224 147.291 328.296 142.512C331.368 137.733 332.904 132.357 332.904 126.384V55.984C332.904 52.0587 332.221 48.304 330.856 44.72C329.661 40.9653 327.443 37.8933 324.2 35.504C321.128 33.1147 316.861 31.92 311.4 31.92H289.128V149.68H311.4Z" stroke="black" stroke-width="2" mask="url(#path-1-outside-1_102_5)"/>
<path d="M407.214 202.16C407.897 202.16 408.494 202.587 409.006 203.44C410.201 205.317 409.774 206.853 407.726 208.048C407.043 208.56 406.19 208.645 405.166 208.304C404.313 208.133 403.715 207.707 403.374 207.024C403.033 206.341 402.862 205.573 402.862 204.72L373.422 154.8H360.878V203.184C361.39 203.696 361.646 204.379 361.646 205.232C361.646 207.451 360.537 208.56 358.318 208.56C356.099 208.56 354.99 207.451 354.99 205.232C354.99 204.379 355.246 203.696 355.758 203.184V26.8H383.15C389.977 26.8 395.267 28.2507 399.022 31.152C402.947 33.8827 405.678 37.4667 407.214 41.904C408.921 46.3413 409.774 51.0347 409.774 55.984V126.384C409.774 131.163 408.921 135.771 407.214 140.208C405.678 144.475 402.947 147.973 399.022 150.704C395.267 153.435 389.977 154.8 383.15 154.8H379.31L407.214 202.16ZM383.15 149.68C391.342 149.68 396.974 147.291 400.046 142.512C403.118 137.733 404.654 132.357 404.654 126.384V55.984C404.654 52.0587 403.971 48.304 402.606 44.72C401.411 40.9653 399.193 37.8933 395.95 35.504C392.878 33.1147 388.611 31.92 383.15 31.92H360.878V149.68H383.15Z" stroke="black" stroke-width="2" mask="url(#path-1-outside-1_102_5)"/>
<path d="M480.988 180.144C480.988 184.923 480.135 189.531 478.428 193.968C476.721 198.235 473.905 201.733 469.98 204.464C466.225 207.195 461.02 208.56 454.364 208.56C447.537 208.56 442.161 207.195 438.236 204.464C434.481 201.733 431.751 198.235 430.044 193.968C428.508 189.531 427.74 184.923 427.74 180.144V53.424C427.74 48.4747 428.508 43.7813 430.044 39.344C431.751 34.9067 434.481 31.3227 438.236 28.592C442.161 25.6907 447.537 24.24 454.364 24.24C461.02 24.24 466.225 25.6907 469.98 28.592C473.905 31.3227 476.721 34.9067 478.428 39.344C480.135 43.7813 480.988 48.4747 480.988 53.424V180.144ZM432.86 180.144C432.86 186.117 434.396 191.493 437.468 196.272C440.54 201.051 446.172 203.44 454.364 203.44C462.556 203.44 468.188 201.051 471.26 196.272C474.332 191.493 475.868 186.117 475.868 180.144V53.424C475.868 49.4987 475.185 45.744 473.82 42.16C472.625 38.4053 470.407 35.3333 467.164 32.944C464.092 30.5546 459.825 29.36 454.364 29.36C448.903 29.36 444.551 30.5546 441.308 32.944C438.236 35.3333 436.017 38.4053 434.652 42.16C433.457 45.744 432.86 49.4987 432.86 53.424V180.144Z" stroke="black" stroke-width="2" mask="url(#path-1-outside-1_102_5)"/>
<path d="M571.89 203.184C572.402 203.696 572.658 204.379 572.658 205.232C572.658 207.451 571.549 208.56 569.33 208.56C567.111 208.56 566.002 207.451 566.002 205.232C566.002 204.379 566.258 203.696 566.77 203.184V37.296L539.634 83.12H534.258L507.378 37.552V203.184C507.89 203.696 508.146 204.379 508.146 205.232C508.146 207.451 507.037 208.56 504.818 208.56C502.599 208.56 501.49 207.451 501.49 205.232C501.49 204.379 501.746 203.696 502.258 203.184V29.872C501.746 29.0187 501.49 28.2507 501.49 27.568C501.49 25.3493 502.599 24.24 504.818 24.24C507.037 24.24 508.146 25.3493 508.146 27.568C508.146 27.7387 508.061 27.9947 507.89 28.336C507.89 28.5067 507.89 28.592 507.89 28.592L537.074 78L566.002 28.592V27.568C566.002 25.3493 567.111 24.24 569.33 24.24C571.549 24.24 572.658 25.3493 572.658 27.568C572.658 28.2507 572.402 29.0187 571.89 29.872V203.184Z" stroke="black" stroke-width="2" mask="url(#path-1-outside-1_102_5)"/>
<path d="M599.128 203.184C599.64 203.696 599.896 204.379 599.896 205.232C599.896 207.451 598.787 208.56 596.568 208.56C594.349 208.56 593.24 207.451 593.24 205.232C593.24 204.379 593.496 203.696 594.008 203.184V26.8H621.4C628.227 26.8 633.517 28.2507 637.272 31.152C641.197 33.8827 643.928 37.4667 645.464 41.904C647.171 46.3413 648.024 51.0347 648.024 55.984V126.384C648.024 131.163 647.171 135.771 645.464 140.208C643.928 144.475 641.197 147.973 637.272 150.704C633.517 153.435 628.227 154.8 621.4 154.8H599.128V203.184ZM621.4 149.68C629.592 149.68 635.224 147.291 638.296 142.512C641.368 137.733 642.904 132.357 642.904 126.384V55.984C642.904 52.0587 642.221 48.304 640.856 44.72C639.661 40.9653 637.443 37.8933 634.2 35.504C631.128 33.1147 626.861 31.92 621.4 31.92H599.128V149.68H621.4Z" stroke="black" stroke-width="2" mask="url(#path-1-outside-1_102_5)"/>
<path d="M686.012 203.184C686.524 203.696 686.78 204.379 686.78 205.232C686.78 207.451 685.671 208.56 683.452 208.56C681.233 208.56 680.124 207.451 680.124 205.232C680.124 204.379 680.38 203.696 680.892 203.184V31.92H661.436C660.753 32.432 660.071 32.688 659.388 32.688C657.169 32.688 656.06 31.5787 656.06 29.36C656.06 27.1413 657.169 26.032 659.388 26.032C660.241 26.032 660.924 26.288 661.436 26.8H705.212C706.065 26.288 706.833 26.032 707.516 26.032C709.735 26.032 710.844 27.1413 710.844 29.36C710.844 31.5787 709.735 32.688 707.516 32.688C707.004 32.688 706.236 32.432 705.212 31.92H686.012V203.184Z" stroke="black" stroke-width="2" mask="url(#path-1-outside-1_102_5)"/>
<path d="M814.368 200.88C815.221 200.368 815.989 200.112 816.672 200.112C818.891 200.112 820 201.221 820 203.44C820 205.659 818.891 206.768 816.672 206.768C815.989 206.768 815.221 206.512 814.368 206H766.752V55.728C766.752 50.7787 767.52 46.1707 769.056 41.904C770.763 37.4667 773.579 33.8827 777.504 31.152C781.429 28.2507 786.805 26.8 793.632 26.8H814.368C815.221 26.288 815.989 26.032 816.672 26.032C818.891 26.032 820 27.1413 820 29.36C820 31.5787 818.891 32.688 816.672 32.688C815.989 32.688 815.221 32.432 814.368 31.92H793.632C788 31.92 783.563 33.1147 780.32 35.504C777.248 37.7227 775.029 40.7093 773.664 44.464C772.469 48.048 771.872 51.8027 771.872 55.728V78H806.944C807.797 77.488 808.565 77.232 809.248 77.232C811.467 77.232 812.576 78.3413 812.576 80.56C812.576 82.7787 811.467 83.888 809.248 83.888C808.565 83.888 807.797 83.632 806.944 83.12H771.872V200.88H814.368Z" stroke="black" stroke-width="2" mask="url(#path-1-outside-1_102_5)"/>
<path d="M888.506 203.184C889.018 203.696 889.274 204.379 889.274 205.232C889.274 207.451 888.165 208.56 885.946 208.56C883.727 208.56 882.618 207.451 882.618 205.232C882.618 204.379 882.874 203.696 883.386 203.184V33.968L840.378 79.792V203.184C840.89 203.696 841.146 204.379 841.146 205.232C841.146 207.451 840.037 208.56 837.818 208.56C835.599 208.56 834.49 207.451 834.49 205.232C834.49 204.379 834.746 203.696 835.258 203.184V29.872C834.746 29.0187 834.49 28.2507 834.49 27.568C834.49 25.3493 835.599 24.24 837.818 24.24C840.037 24.24 841.146 25.3493 841.146 27.568C841.146 28.2507 840.89 29.0187 840.378 29.872V72.624L883.386 26.8H888.506V203.184Z" stroke="black" stroke-width="2" mask="url(#path-1-outside-1_102_5)"/>
<path d="M962.988 180.144C962.988 184.923 962.135 189.531 960.428 193.968C958.721 198.235 955.905 201.733 951.98 204.464C948.225 207.195 943.02 208.56 936.364 208.56C929.537 208.56 924.161 207.195 920.236 204.464C916.481 201.733 913.751 198.235 912.044 193.968C910.508 189.531 909.74 184.923 909.74 180.144V53.424C909.74 48.4747 910.508 43.7813 912.044 39.344C913.751 34.9067 916.481 31.3227 920.236 28.592C924.161 25.6907 929.537 24.24 936.364 24.24C945.921 24.24 952.663 26.9707 956.588 32.432C960.684 37.8933 962.817 44.1227 962.988 51.12C963.5 51.632 963.756 52.4 963.756 53.424C963.756 55.6427 962.647 56.752 960.428 56.752C958.209 56.752 957.1 55.6427 957.1 53.424C957.1 52.5707 957.356 51.888 957.868 51.376C957.697 45.9147 955.991 40.88 952.748 36.272C949.676 31.664 944.215 29.36 936.364 29.36C930.903 29.36 926.551 30.5546 923.308 32.944C920.236 35.3333 918.017 38.4053 916.652 42.16C915.457 45.744 914.86 49.4987 914.86 53.424V180.144C914.86 186.117 916.396 191.493 919.468 196.272C922.54 201.051 928.172 203.44 936.364 203.44C944.556 203.44 950.188 201.051 953.26 196.272C956.332 191.493 957.868 186.117 957.868 180.144V134.576H938.412C937.9 135.088 937.217 135.344 936.364 135.344C934.145 135.344 933.036 134.235 933.036 132.016C933.036 129.797 934.145 128.688 936.364 128.688C937.217 128.688 937.9 128.944 938.412 129.456H962.988V180.144Z" stroke="black" stroke-width="2" mask="url(#path-1-outside-1_102_5)"/>
<path d="M987.128 203.184C987.64 203.696 987.896 204.379 987.896 205.232C987.896 207.451 986.787 208.56 984.568 208.56C982.349 208.56 981.24 207.451 981.24 205.232C981.24 204.379 981.496 203.696 982.008 203.184V29.872C981.496 29.0187 981.24 28.2507 981.24 27.568C981.24 25.3493 982.349 24.24 984.568 24.24C986.787 24.24 987.896 25.3493 987.896 27.568C987.896 28.2507 987.64 29.0187 987.128 29.872V203.184Z" stroke="black" stroke-width="2" mask="url(#path-1-outside-1_102_5)"/>
<path d="M1062.51 203.184C1063.02 203.696 1063.27 204.379 1063.27 205.232C1063.27 207.451 1062.16 208.56 1059.95 208.56C1057.73 208.56 1056.62 207.451 1056.62 205.232C1056.62 204.379 1056.87 203.696 1057.39 203.184V33.968L1014.38 79.792V203.184C1014.89 203.696 1015.15 204.379 1015.15 205.232C1015.15 207.451 1014.04 208.56 1011.82 208.56C1009.6 208.56 1008.49 207.451 1008.49 205.232C1008.49 204.379 1008.75 203.696 1009.26 203.184V29.872C1008.75 29.0187 1008.49 28.2507 1008.49 27.568C1008.49 25.3493 1009.6 24.24 1011.82 24.24C1014.04 24.24 1015.15 25.3493 1015.15 27.568C1015.15 28.2507 1014.89 29.0187 1014.38 29.872V72.624L1057.39 26.8H1062.51V203.184Z" stroke="black" stroke-width="2" mask="url(#path-1-outside-1_102_5)"/>
<path d="M1131.87 200.88C1132.72 200.368 1133.49 200.112 1134.17 200.112C1136.39 200.112 1137.5 201.221 1137.5 203.44C1137.5 205.659 1136.39 206.768 1134.17 206.768C1133.49 206.768 1132.72 206.512 1131.87 206H1084.25V55.728C1084.25 50.7787 1085.02 46.1707 1086.56 41.904C1088.26 37.4667 1091.08 33.8827 1095 31.152C1098.93 28.2507 1104.31 26.8 1111.13 26.8H1131.87C1132.72 26.288 1133.49 26.032 1134.17 26.032C1136.39 26.032 1137.5 27.1413 1137.5 29.36C1137.5 31.5787 1136.39 32.688 1134.17 32.688C1133.49 32.688 1132.72 32.432 1131.87 31.92H1111.13C1105.5 31.92 1101.06 33.1147 1097.82 35.504C1094.75 37.7227 1092.53 40.7093 1091.16 44.464C1089.97 48.048 1089.37 51.8027 1089.37 55.728V78H1124.44C1125.3 77.488 1126.07 77.232 1126.75 77.232C1128.97 77.232 1130.08 78.3413 1130.08 80.56C1130.08 82.7787 1128.97 83.888 1126.75 83.888C1126.07 83.888 1125.3 83.632 1124.44 83.12H1089.37V200.88H1131.87Z" stroke="black" stroke-width="2" mask="url(#path-1-outside-1_102_5)"/>
<path d="M1200.12 200.88C1200.97 200.368 1201.74 200.112 1202.42 200.112C1204.64 200.112 1205.75 201.221 1205.75 203.44C1205.75 205.659 1204.64 206.768 1202.42 206.768C1201.74 206.768 1200.97 206.512 1200.12 206H1152.5V55.728C1152.5 50.7787 1153.27 46.1707 1154.81 41.904C1156.51 37.4667 1159.33 33.8827 1163.25 31.152C1167.18 28.2507 1172.56 26.8 1179.38 26.8H1200.12C1200.97 26.288 1201.74 26.032 1202.42 26.032C1204.64 26.032 1205.75 27.1413 1205.75 29.36C1205.75 31.5787 1204.64 32.688 1202.42 32.688C1201.74 32.688 1200.97 32.432 1200.12 31.92H1179.38C1173.75 31.92 1169.31 33.1147 1166.07 35.504C1163 37.7227 1160.78 40.7093 1159.41 44.464C1158.22 48.048 1157.62 51.8027 1157.62 55.728V78H1192.69C1193.55 77.488 1194.32 77.232 1195 77.232C1197.22 77.232 1198.33 78.3413 1198.33 80.56C1198.33 82.7787 1197.22 83.888 1195 83.888C1194.32 83.888 1193.55 83.632 1192.69 83.12H1157.62V200.88H1200.12Z" stroke="black" stroke-width="2" mask="url(#path-1-outside-1_102_5)"/>
<path d="M1272.46 202.16C1273.15 202.16 1273.74 202.587 1274.26 203.44C1275.45 205.317 1275.02 206.853 1272.98 208.048C1272.29 208.56 1271.44 208.645 1270.42 208.304C1269.56 208.133 1268.97 207.707 1268.62 207.024C1268.28 206.341 1268.11 205.573 1268.11 204.72L1238.67 154.8H1226.13V203.184C1226.64 203.696 1226.9 204.379 1226.9 205.232C1226.9 207.451 1225.79 208.56 1223.57 208.56C1221.35 208.56 1220.24 207.451 1220.24 205.232C1220.24 204.379 1220.5 203.696 1221.01 203.184V26.8H1248.4C1255.23 26.8 1260.52 28.2507 1264.27 31.152C1268.2 33.8827 1270.93 37.4667 1272.46 41.904C1274.17 46.3413 1275.02 51.0347 1275.02 55.984V126.384C1275.02 131.163 1274.17 135.771 1272.46 140.208C1270.93 144.475 1268.2 147.973 1264.27 150.704C1260.52 153.435 1255.23 154.8 1248.4 154.8H1244.56L1272.46 202.16ZM1248.4 149.68C1256.59 149.68 1262.22 147.291 1265.3 142.512C1268.37 137.733 1269.9 132.357 1269.9 126.384V55.984C1269.9 52.0587 1269.22 48.304 1267.86 44.72C1266.66 40.9653 1264.44 37.8933 1261.2 35.504C1258.13 33.1147 1253.86 31.92 1248.4 31.92H1226.13V149.68H1248.4Z" stroke="black" stroke-width="2" mask="url(#path-1-outside-1_102_5)"/>
<path d="M1298.88 203.184C1299.39 203.696 1299.65 204.379 1299.65 205.232C1299.65 207.451 1298.54 208.56 1296.32 208.56C1294.1 208.56 1292.99 207.451 1292.99 205.232C1292.99 204.379 1293.25 203.696 1293.76 203.184V29.872C1293.25 29.0187 1292.99 28.2507 1292.99 27.568C1292.99 25.3493 1294.1 24.24 1296.32 24.24C1298.54 24.24 1299.65 25.3493 1299.65 27.568C1299.65 28.2507 1299.39 29.0187 1298.88 29.872V203.184Z" stroke="black" stroke-width="2" mask="url(#path-1-outside-1_102_5)"/>
<path d="M1374.26 203.184C1374.77 203.696 1375.02 204.379 1375.02 205.232C1375.02 207.451 1373.91 208.56 1371.7 208.56C1369.48 208.56 1368.37 207.451 1368.37 205.232C1368.37 204.379 1368.62 203.696 1369.14 203.184V33.968L1326.13 79.792V203.184C1326.64 203.696 1326.9 204.379 1326.9 205.232C1326.9 207.451 1325.79 208.56 1323.57 208.56C1321.35 208.56 1320.24 207.451 1320.24 205.232C1320.24 204.379 1320.5 203.696 1321.01 203.184V29.872C1320.5 29.0187 1320.24 28.2507 1320.24 27.568C1320.24 25.3493 1321.35 24.24 1323.57 24.24C1325.79 24.24 1326.9 25.3493 1326.9 27.568C1326.9 28.2507 1326.64 29.0187 1326.13 29.872V72.624L1369.14 26.8H1374.26V203.184Z" stroke="black" stroke-width="2" mask="url(#path-1-outside-1_102_5)"/>
<path d="M1448.74 180.144C1448.74 184.923 1447.88 189.531 1446.18 193.968C1444.47 198.235 1441.66 201.733 1437.73 204.464C1433.98 207.195 1428.77 208.56 1422.11 208.56C1415.29 208.56 1409.91 207.195 1405.99 204.464C1402.23 201.733 1399.5 198.235 1397.79 193.968C1396.26 189.531 1395.49 184.923 1395.49 180.144V53.424C1395.49 48.4747 1396.26 43.7813 1397.79 39.344C1399.5 34.9067 1402.23 31.3227 1405.99 28.592C1409.91 25.6907 1415.29 24.24 1422.11 24.24C1431.67 24.24 1438.41 26.9707 1442.34 32.432C1446.43 37.8933 1448.57 44.1227 1448.74 51.12C1449.25 51.632 1449.51 52.4 1449.51 53.424C1449.51 55.6427 1448.4 56.752 1446.18 56.752C1443.96 56.752 1442.85 55.6427 1442.85 53.424C1442.85 52.5707 1443.11 51.888 1443.62 51.376C1443.45 45.9147 1441.74 40.88 1438.5 36.272C1435.43 31.664 1429.96 29.36 1422.11 29.36C1416.65 29.36 1412.3 30.5546 1409.06 32.944C1405.99 35.3333 1403.77 38.4053 1402.4 42.16C1401.21 45.744 1400.61 49.4987 1400.61 53.424V180.144C1400.61 186.117 1402.15 191.493 1405.22 196.272C1408.29 201.051 1413.92 203.44 1422.11 203.44C1430.31 203.44 1435.94 201.051 1439.01 196.272C1442.08 191.493 1443.62 186.117 1443.62 180.144V134.576H1424.16C1423.65 135.088 1422.97 135.344 1422.11 135.344C1419.9 135.344 1418.79 134.235 1418.79 132.016C1418.79 129.797 1419.9 128.688 1422.11 128.688C1422.97 128.688 1423.65 128.944 1424.16 129.456H1448.74V180.144Z" stroke="black" stroke-width="2" mask="url(#path-1-outside-1_102_5)"/>
<path d="M1515.38 203.184C1515.89 203.696 1516.15 204.379 1516.15 205.232C1516.15 207.451 1515.04 208.56 1512.82 208.56C1510.6 208.56 1509.49 207.451 1509.49 205.232C1509.49 204.379 1509.75 203.696 1510.26 203.184V26.8H1537.65C1544.48 26.8 1549.77 28.2507 1553.52 31.152C1557.45 33.8827 1560.18 37.4667 1561.71 41.904C1563.42 46.3413 1564.27 51.0347 1564.27 55.984V126.384C1564.27 131.163 1563.42 135.771 1561.71 140.208C1560.18 144.475 1557.45 147.973 1553.52 150.704C1549.77 153.435 1544.48 154.8 1537.65 154.8H1515.38V203.184ZM1537.65 149.68C1545.84 149.68 1551.47 147.291 1554.55 142.512C1557.62 137.733 1559.15 132.357 1559.15 126.384V55.984C1559.15 52.0587 1558.47 48.304 1557.11 44.72C1555.91 40.9653 1553.69 37.8933 1550.45 35.504C1547.38 33.1147 1543.11 31.92 1537.65 31.92H1515.38V149.68H1537.65Z" stroke="black" stroke-width="2" mask="url(#path-1-outside-1_102_5)"/>
<path d="M1635 203.184C1635.51 203.696 1635.77 204.379 1635.77 205.232C1635.77 207.451 1634.66 208.56 1632.44 208.56C1630.22 208.56 1629.11 207.451 1629.11 205.232C1629.11 204.379 1629.37 203.696 1629.88 203.184V83.12H1586.87V203.184C1587.38 203.696 1587.64 204.379 1587.64 205.232C1587.64 207.451 1586.53 208.56 1584.31 208.56C1582.09 208.56 1580.98 207.451 1580.98 205.232C1580.98 204.379 1581.24 203.696 1581.75 203.184V55.984C1581.75 51.0347 1582.52 46.3413 1584.06 41.904C1585.76 37.4667 1588.58 33.8827 1592.5 31.152C1596.43 28.2507 1601.81 26.8 1608.63 26.8H1635V203.184ZM1629.88 78V31.92H1608.63C1603 31.92 1598.56 33.1147 1595.32 35.504C1592.25 37.8933 1590.03 40.9653 1588.66 44.72C1587.47 48.304 1586.87 52.0587 1586.87 55.984V78H1629.88Z" stroke="black" stroke-width="2" mask="url(#path-1-outside-1_102_5)"/>
<path d="M1678.26 203.184C1678.77 203.696 1679.03 204.379 1679.03 205.232C1679.03 207.451 1677.92 208.56 1675.7 208.56C1673.48 208.56 1672.37 207.451 1672.37 205.232C1672.37 204.379 1672.63 203.696 1673.14 203.184V31.92H1653.69C1653 32.432 1652.32 32.688 1651.64 32.688C1649.42 32.688 1648.31 31.5787 1648.31 29.36C1648.31 27.1413 1649.42 26.032 1651.64 26.032C1652.49 26.032 1653.17 26.288 1653.69 26.8H1697.46C1698.32 26.288 1699.08 26.032 1699.77 26.032C1701.98 26.032 1703.09 27.1413 1703.09 29.36C1703.09 31.5787 1701.98 32.688 1699.77 32.688C1699.25 32.688 1698.49 32.432 1697.46 31.92H1678.26V203.184Z" stroke="black" stroke-width="2" mask="url(#path-1-outside-1_102_5)"/>
<path d="M1738.26 203.184C1738.77 203.696 1739.03 204.379 1739.03 205.232C1739.03 207.451 1737.92 208.56 1735.7 208.56C1733.48 208.56 1732.37 207.451 1732.37 205.232C1732.37 204.379 1732.63 203.696 1733.14 203.184V31.92H1713.69C1713 32.432 1712.32 32.688 1711.64 32.688C1709.42 32.688 1708.31 31.5787 1708.31 29.36C1708.31 27.1413 1709.42 26.032 1711.64 26.032C1712.49 26.032 1713.17 26.288 1713.69 26.8H1757.46C1758.32 26.288 1759.08 26.032 1759.77 26.032C1761.98 26.032 1763.09 27.1413 1763.09 29.36C1763.09 31.5787 1761.98 32.688 1759.77 32.688C1759.25 32.688 1758.49 32.432 1757.46 31.92H1738.26V203.184Z" stroke="black" stroke-width="2" mask="url(#path-1-outside-1_102_5)"/>
<path d="M1821.37 200.88C1822.22 200.368 1822.99 200.112 1823.67 200.112C1825.89 200.112 1827 201.221 1827 203.44C1827 205.659 1825.89 206.768 1823.67 206.768C1822.99 206.768 1822.22 206.512 1821.37 206H1773.75V55.728C1773.75 50.7787 1774.52 46.1707 1776.06 41.904C1777.76 37.4667 1780.58 33.8827 1784.5 31.152C1788.43 28.2507 1793.81 26.8 1800.63 26.8H1821.37C1822.22 26.288 1822.99 26.032 1823.67 26.032C1825.89 26.032 1827 27.1413 1827 29.36C1827 31.5787 1825.89 32.688 1823.67 32.688C1822.99 32.688 1822.22 32.432 1821.37 31.92H1800.63C1795 31.92 1790.56 33.1147 1787.32 35.504C1784.25 37.7227 1782.03 40.7093 1780.66 44.464C1779.47 48.048 1778.87 51.8027 1778.87 55.728V78H1813.94C1814.8 77.488 1815.57 77.232 1816.25 77.232C1818.47 77.232 1819.58 78.3413 1819.58 80.56C1819.58 82.7787 1818.47 83.888 1816.25 83.888C1815.57 83.888 1814.8 83.632 1813.94 83.12H1778.87V200.88H1821.37Z" stroke="black" stroke-width="2" mask="url(#path-1-outside-1_102_5)"/>
<path d="M1893.71 202.16C1894.4 202.16 1894.99 202.587 1895.51 203.44C1896.7 205.317 1896.27 206.853 1894.23 208.048C1893.54 208.56 1892.69 208.645 1891.67 208.304C1890.81 208.133 1890.22 207.707 1889.87 207.024C1889.53 206.341 1889.36 205.573 1889.36 204.72L1859.92 154.8H1847.38V203.184C1847.89 203.696 1848.15 204.379 1848.15 205.232C1848.15 207.451 1847.04 208.56 1844.82 208.56C1842.6 208.56 1841.49 207.451 1841.49 205.232C1841.49 204.379 1841.75 203.696 1842.26 203.184V26.8H1869.65C1876.48 26.8 1881.77 28.2507 1885.52 31.152C1889.45 33.8827 1892.18 37.4667 1893.71 41.904C1895.42 46.3413 1896.27 51.0347 1896.27 55.984V126.384C1896.27 131.163 1895.42 135.771 1893.71 140.208C1892.18 144.475 1889.45 147.973 1885.52 150.704C1881.77 153.435 1876.48 154.8 1869.65 154.8H1865.81L1893.71 202.16ZM1869.65 149.68C1877.84 149.68 1883.47 147.291 1886.55 142.512C1889.62 137.733 1891.15 132.357 1891.15 126.384V55.984C1891.15 52.0587 1890.47 48.304 1889.11 44.72C1887.91 40.9653 1885.69 37.8933 1882.45 35.504C1879.38 33.1147 1875.11 31.92 1869.65 31.92H1847.38V149.68H1869.65Z" stroke="black" stroke-width="2" mask="url(#path-1-outside-1_102_5)"/>
<path d="M1968.26 203.184C1968.77 203.696 1969.02 204.379 1969.02 205.232C1969.02 207.451 1967.91 208.56 1965.7 208.56C1963.48 208.56 1962.37 207.451 1962.37 205.232C1962.37 204.379 1962.62 203.696 1963.14 203.184V33.968L1920.13 79.792V203.184C1920.64 203.696 1920.9 204.379 1920.9 205.232C1920.9 207.451 1919.79 208.56 1917.57 208.56C1915.35 208.56 1914.24 207.451 1914.24 205.232C1914.24 204.379 1914.5 203.696 1915.01 203.184V29.872C1914.5 29.0187 1914.24 28.2507 1914.24 27.568C1914.24 25.3493 1915.35 24.24 1917.57 24.24C1919.79 24.24 1920.9 25.3493 1920.9 27.568C1920.9 28.2507 1920.64 29.0187 1920.13 29.872V72.624L1963.14 26.8H1968.26V203.184Z" stroke="black" stroke-width="2" mask="url(#path-1-outside-1_102_5)"/>
<path d="M2040.18 180.144C2040.18 184.923 2039.32 189.531 2037.62 193.968C2035.91 198.235 2033.1 201.733 2029.17 204.464C2025.42 207.195 2020.12 208.56 2013.3 208.56C2003.91 208.56 1997.26 205.915 1993.33 200.624C1989.4 195.333 1987.19 189.275 1986.67 182.448C1986.16 181.936 1985.91 181.168 1985.91 180.144C1985.91 177.925 1987.02 176.816 1989.23 176.816C1991.45 176.816 1992.56 177.925 1992.56 180.144C1992.56 181.168 1992.31 181.936 1991.79 182.448C1991.96 188.251 1993.67 193.2 1996.91 197.296C2000.16 201.392 2005.62 203.44 2013.3 203.44C2021.49 203.44 2027.12 201.051 2030.19 196.272C2033.44 191.493 2035.06 186.117 2035.06 180.144V148.144C2035.06 139.099 2031.73 131.504 2025.07 125.36L1995.12 98.736C1990.86 94.9813 1988.21 91.1413 1987.19 87.216C1986.16 83.2907 1985.65 79.3653 1985.65 75.44V53.424C1985.65 48.4747 1986.5 43.7813 1988.21 39.344C1989.92 34.9067 1992.73 31.3227 1996.66 28.592C2000.58 25.6907 2005.87 24.24 2012.53 24.24C2022.09 24.24 2028.83 26.9707 2032.75 32.432C2036.68 37.8933 2038.81 44.1227 2039.15 51.12C2039.67 51.632 2039.92 52.4 2039.92 53.424C2039.92 55.6427 2038.81 56.752 2036.59 56.752C2034.38 56.752 2033.27 55.6427 2033.27 53.424C2033.27 52.5707 2033.52 51.888 2034.03 51.376C2033.69 45.9147 2031.9 40.88 2028.66 36.272C2025.59 31.664 2020.21 29.36 2012.53 29.36C2007.07 29.36 2002.72 30.5546 1999.47 32.944C1996.4 35.3333 1994.18 38.4053 1992.82 42.16C1991.45 45.744 1990.77 49.4987 1990.77 53.424V75.44C1990.94 79.7067 1991.54 83.5467 1992.56 86.96C1993.76 90.2027 1995.8 93.104 1998.71 95.664L2028.91 122.288C2033.35 126.555 2036.34 130.907 2037.87 135.344C2039.41 139.611 2040.18 143.877 2040.18 148.144V180.144Z" stroke="black" stroke-width="2" mask="url(#path-1-outside-1_102_5)"/>
</svg>
